<svg width="868" height="297" viewBox="0 0 868 297" fill="none" xmlns="http://www.w3.org/2000/svg">
<path d="M336 4.00002C344.91 4.00002 353.82 4.00002 363 4.00002C366.801 16.6357 369.826 29.4405 372.856 42.28C373.756 46.0861 374.665 49.8897 375.574 53.6934C376.149 56.1197 376.723 58.5461 377.297 60.9727C377.705 62.6727 377.705 62.6727 378.121 64.407C378.492 65.9904 378.492 65.9904 378.87 67.6057C379.198 68.9913 379.198 68.9913 379.533 70.4049C379.999 72.9962 380.086 75.3735 380 78C380.66 78 381.32 78 382 78C382.08 76.8721 382.16 75.7442 382.242 74.582C383.111 66.8136 385.238 59.258 387.125 51.6875C387.53 50.0461 387.934 48.4046 388.338 46.763C389.551 41.84 390.774 36.9198 392 32C392.37 30.5131 392.739 29.0261 393.109 27.5391C395.061 19.6897 397.028 11.8445 399 4.00002C407.91 4.00002 416.82 4.00002 426 4.00002C426 46.9 426 89.8 426 134C419.73 134 413.46 134 407 134C406.67 106.28 406.34 78.56 406 50C399.4 77.72 392.8 105.44 386 134C382.7 134 379.4 134 376 134C374.416 127.324 372.835 120.646 371.258 113.968C370.724 111.713 370.19 109.458 369.655 107.204C365.219 88.511 361.107 69.7728 357 51C356.67 78.39 356.34 105.78 356 134C349.4 134 342.8 134 336 134C336 91.1 336 48.2 336 4.00002Z" fill="#082443"/>
<path d="M0 170C7.92 170 15.84 170 24 170C27.657 183.096 31.2828 196.197 34.7227 209.352C35.0621 210.649 35.0621 210.649 35.4084 211.973C36.5315 216.27 37.6492 220.568 38.7612 224.868C39.1728 226.448 39.5844 228.029 39.9961 229.609C40.1843 230.343 40.3725 231.078 40.5664 231.834C41.2361 235.195 41.2361 235.195 43 238C48.94 215.56 54.88 193.12 61 170C69.25 170 77.5 170 86 170C86 210.59 86 251.18 86 293C79.73 293 73.46 293 67 293C66.67 267.59 66.34 242.18 66 216C60.06 241.41 54.12 266.82 48 293C44.7 293 41.4 293 38 293C35.6692 283.308 33.3395 273.615 31.0111 263.923C29.9298 259.422 28.8483 254.921 27.7659 250.421C26.7211 246.077 25.6773 241.732 24.6342 237.388C24.2362 235.731 23.8379 234.075 23.4393 232.418C22.8806 230.097 22.3231 227.775 21.7659 225.452C21.6012 224.769 21.4364 224.086 21.2667 223.382C20.4396 219.929 19.6967 216.484 19 213C18.67 239.4 18.34 265.8 18 293C12.06 293 6.12 293 0 293C0 252.41 0 211.82 0 170Z" fill="#082443"/>
<path d="M790 4.00002C797.26 4.00002 804.52 4.00002 812 4.00002C814.516 9.03242 816.708 13.5637 818.629 18.7617C818.86 19.3827 819.091 20.0037 819.329 20.6435C820.078 22.6567 820.82 24.6721 821.562 26.6875C822.352 28.8146 823.143 30.9411 823.933 33.0675C824.474 34.5223 825.015 35.9772 825.555 37.4324C828.856 46.3233 832.235 55.1844 835.61 64.0476C836.041 65.183 836.473 66.3185 836.918 67.4883C837.487 68.9816 837.487 68.9816 838.067 70.5051C838.747 72.3238 839.386 74.158 840 76C840.33 52.24 840.66 28.48 841 4.00002C847.6 4.00002 854.2 4.00002 861 4.00002C861 46.9 861 89.8 861 134C854.73 134 848.46 134 842 134C839.024 127.443 836.317 120.826 833.734 114.105C833.337 113.078 832.94 112.051 832.531 110.992C831.269 107.725 830.009 104.456 828.75 101.188C827.505 97.9583 826.259 94.7293 825.012 91.5008C824.24 89.503 823.47 87.5048 822.701 85.5059C818.89 75.6329 814.932 65.8291 811 56C810.67 81.74 810.34 107.48 810 134C803.4 134 796.8 134 790 134C790 91.1 790 48.2 790 4.00002Z" fill="#082443"/>
<path d="M193 3.00002C199.6 3.00002 206.2 3.00002 213 3.00002C213.091 16.7611 213.164 30.522 213.207 44.2833C213.228 50.6739 213.256 57.0643 213.302 63.4548C213.345 69.6275 213.369 75.8 213.38 81.9729C213.387 84.3223 213.401 86.6717 213.423 89.021C213.452 92.3239 213.456 95.626 213.454 98.929C213.468 99.89 213.483 100.851 213.498 101.841C213.438 111.752 210.393 121.268 203.508 128.586C195.988 135.69 187.126 136.604 177.185 136.549C168.651 136.276 162.065 133.897 155.824 127.914C147.914 118.579 146.841 107.759 146.886 95.9556C146.886 94.9598 146.886 93.9641 146.886 92.9382C146.887 89.6593 146.894 86.3805 146.902 83.1016C146.904 80.8233 146.906 78.545 146.907 76.2667C146.91 70.2794 146.92 64.292 146.931 58.3047C146.942 52.1914 146.946 46.0781 146.951 39.9649C146.962 27.9766 146.979 15.9883 147 4.00002C154.26 4.00002 161.52 4.00002 169 4.00002C169.015 7.01771 169.029 10.0354 169.044 13.1445C169.095 23.1271 169.161 33.1094 169.236 43.0918C169.28 49.1427 169.32 55.1936 169.346 61.2446C169.372 67.0868 169.413 72.9286 169.463 78.7706C169.48 80.9968 169.491 83.2231 169.498 85.4494C169.507 88.5733 169.535 91.6966 169.568 94.8203C169.565 96.1938 169.565 96.1938 169.563 97.5951C169.647 103.376 170.503 107.753 173 113C177.041 115.694 180.256 115.659 185 115C188.606 113.082 189.705 111.805 191.109 107.977C192.336 103.326 192.308 98.718 192.319 93.9339C192.334 92.4547 192.334 92.4547 192.349 90.9456C192.38 87.7046 192.397 84.4637 192.414 81.2227C192.433 78.9682 192.452 76.7138 192.473 74.4594C192.524 68.5395 192.564 62.6196 192.601 56.6996C192.641 50.6532 192.692 44.6069 192.742 38.5606C192.839 26.7071 192.922 14.8536 193 3.00002Z" fill="#082443"/>
<path d="M272 170C278.93 170 285.86 170 293 170C293.33 185.18 293.66 200.36 294 216C296.516 210.823 299.032 205.646 301.625 200.312C302.406 198.708 303.186 197.104 303.991 195.45C308.092 187.009 312.098 178.536 316 170C323.26 170 330.52 170 338 170C334.627 180.118 334.627 180.118 332.808 183.674C332.404 184.472 332.001 185.269 331.585 186.091C331.16 186.92 330.735 187.748 330.297 188.602C329.39 190.409 328.484 192.216 327.578 194.023C326.161 196.836 324.739 199.646 323.305 202.449C321.911 205.18 320.54 207.921 319.172 210.664C318.522 211.913 318.522 211.913 317.859 213.187C314.752 219.478 314.761 223.285 317.009 230.025C317.424 231.035 317.838 232.045 318.266 233.086C318.738 234.249 319.21 235.412 319.696 236.61C319.949 237.223 320.202 237.836 320.463 238.468C321.542 241.082 322.603 243.703 323.666 246.323C324.23 247.711 324.793 249.098 325.358 250.484C328.402 257.961 331.366 265.469 334.32 272.982C335.178 275.163 336.037 277.343 336.897 279.523C337.425 280.863 337.953 282.203 338.48 283.543C338.943 284.719 339.407 285.895 339.884 287.106C340.635 289.054 341.34 291.02 342 293C334.41 293 326.82 293 319 293C314.5 284 314.5 284 313.169 280.512C312.869 279.732 312.569 278.951 312.26 278.147C311.952 277.336 311.645 276.524 311.328 275.688C311.001 274.833 310.674 273.979 310.336 273.099C309.304 270.401 308.277 267.7 307.25 265C306.546 263.157 305.842 261.315 305.137 259.473C303.42 254.983 301.709 250.492 300 246C295.097 252.07 293.551 257.052 293.488 264.68C293.47 265.492 293.452 266.305 293.434 267.143C293.38 269.72 293.346 272.297 293.312 274.875C293.279 276.63 293.245 278.385 293.209 280.141C293.122 284.427 293.062 288.713 293 293C286.07 293 279.14 293 272 293C272 252.41 272 211.82 272 170Z" fill="#082443"/>
<path d="M231 3.00002C249.48 3.00002 267.96 3.00002 287 3.00002C287 9.93002 287 16.86 287 24C275.78 24 264.56 24 253 24C253 35.22 253 46.44 253 58C261.91 58 270.82 58 280 58C280 64.93 280 71.86 280 79C271.09 79 262.18 79 253 79C253 90.55 253 102.1 253 114C264.88 114 276.76 114 289 114C289 120.6 289 127.2 289 134C269.86 134 250.72 134 231 134C231 90.77 231 47.54 231 3.00002Z" fill="#082443"/>
<path d="M784.285 173.543C790.663 178.753 794.873 185.033 797 193C797.222 195.8 797.19 198.569 797.125 201.375C797.084 203.891 797.043 206.408 797 209C790.07 209 783.14 209 776 209C775.25 201.25 775.25 201.25 775.044 198.829C774.661 195.386 774.222 193.278 772.047 190.547C768.231 187.663 765.823 187.853 761.195 188.426C758.729 188.887 758.729 188.887 756.5 191.313C754.026 195.745 753.869 199.409 753.839 204.462C753.829 205.774 753.82 207.086 753.81 208.438C753.805 209.869 753.801 211.3 753.797 212.73C753.791 214.205 753.785 215.68 753.78 217.155C753.769 220.248 753.763 223.34 753.76 226.433C753.754 230.376 753.73 234.318 753.702 238.261C753.683 241.309 753.678 244.357 753.676 247.406C753.673 248.858 753.665 250.31 753.652 251.763C753.237 263.33 753.237 263.33 757 274C760.651 276.345 763.708 276.307 768 276C770.318 275.591 770.318 275.591 772 274C775.554 267.945 775.611 261.931 776 255C782.93 255 789.86 255 797 255C797.423 266.52 797.38 275.999 789.75 285.375C782.42 292.986 774.62 295.858 764.188 296.375C754.638 296.108 746.665 292.797 739.84 286.145C733.836 279.147 731.764 270.592 731.709 261.495C731.703 260.78 731.696 260.065 731.689 259.329C731.67 256.985 731.666 254.641 731.664 252.297C731.658 250.652 731.651 249.007 731.644 247.361C731.632 243.918 731.628 240.476 731.629 237.033C731.63 232.647 731.602 228.262 731.568 223.877C731.546 220.48 731.542 217.082 731.543 213.685C731.54 212.069 731.532 210.454 731.516 208.839C731.405 196.159 732.582 185.484 741.711 175.945C753.677 165.776 771.233 164.73 784.285 173.543Z" fill="#082443"/>
<path d="M814 170C831.49 170 848.98 170 867 170C867 176.27 867 182.54 867 189C856.44 189 845.88 189 835 189C835 199.56 835 210.12 835 221C843.25 221 851.5 221 860 221C860 227.27 860 233.54 860 240C851.75 240 843.5 240 835 240C835 250.89 835 261.78 835 273C845.89 273 856.78 273 868 273C868 279.6 868 286.2 868 293C850.18 293 832.36 293 814 293C814 252.41 814 211.82 814 170Z" fill="#082443"/>
<path d="M356 170C373.16 170 390.32 170 408 170C408 176.27 408 182.54 408 189C397.77 189 387.54 189 377 189C377 199.56 377 210.12 377 221C385.25 221 393.5 221 402 221C402 227.27 402 233.54 402 240C393.75 240 385.5 240 377 240C377 250.89 377 261.78 377 273C387.89 273 398.78 273 410 273C410 279.6 410 286.2 410 293C392.18 293 374.36 293 356 293C356 252.41 356 211.82 356 170Z" fill="#082443"/>
<path d="M83 3.00002C90.26 3.00002 97.52 3.00002 105 3.00002C105 39.63 105 76.26 105 114C115.23 114 125.46 114 136 114C136 120.6 136 127.2 136 134C118.51 134 101.02 134 83 134C83 90.77 83 47.54 83 3.00002Z" fill="#082443"/>
<path d="M422 170C442.79 170 463.58 170 485 170C485 176.27 485 182.54 485 189C478.07 189 471.14 189 464 189C464 223.32 464 257.64 464 293C457.07 293 450.14 293 443 293C443 258.68 443 224.36 443 189C436.07 189 429.14 189 422 189C422 182.73 422 176.46 422 170Z" fill="#082443"/>
<path d="M581 170C587.93 170 594.86 170 602 170C602 203.99 602 237.98 602 273C612.23 273 622.46 273 633 273C633 279.6 633 286.2 633 293C615.84 293 598.68 293 581 293C581 252.41 581 211.82 581 170Z" fill="#082443"/>
<path d="M711.25 10.25C722.998 -0.793429 740.887 -2.26068 755 4.99998C764.005 10.0201 768.512 18.152 771.352 27.8281C772.706 34.4578 772.428 41.2569 772.398 47.9961C772.4 49.6369 772.403 51.278 772.407 52.9189C772.412 56.3438 772.406 59.7685 772.392 63.1933C772.375 67.5551 772.383 71.9166 772.401 76.2783C772.412 79.6629 772.409 83.048 772.401 86.4326C772.399 88.0394 772.402 89.6462 772.409 91.2529C772.455 104.496 771.599 116.723 762.25 126.906C753.795 134.952 745.323 136.602 733.977 136.471C724.709 136.125 717.652 133.614 710.82 127.184C701.41 115.895 700.685 103.082 700.699 89.1094C700.695 87.5577 700.691 86.0057 700.687 84.4541C700.679 81.2099 700.679 77.9658 700.685 74.7217C700.69 70.5954 700.674 66.469 700.65 62.3428C700.636 59.1393 700.635 55.9359 700.638 52.7324C700.637 51.2128 700.632 49.6924 700.622 48.1728C700.542 34.5971 701.592 20.6327 711.25 10.25ZM740 22C736.013 21.465 732.412 21.3894 728.688 23C722.503 30.3301 722.442 37.4979 722.547 46.6875C722.566 48.2102 722.577 49.733 722.582 51.2558C722.586 54.4473 722.594 57.6387 722.62 60.8301C722.66 64.9634 722.694 69.0969 722.705 73.2304C722.714 77.2467 722.728 81.263 722.749 85.2793C722.753 86.0609 722.758 86.8195 722.762 87.5781C722.772 89.7906 722.783 92.0034 722.803 94.2158C722.81 94.9064 722.817 95.5767 722.823 96.247C722.876 102.793 723.612 107.313 727 113C729.981 115.63 732.564 116.253 736.438 116.5C740.324 116.338 742.943 115.492 745.796 112.645C750.486 106.239 750.486 106.239 750.378 89.0703C750.368 87.6515 750.363 86.2323 750.362 84.8135C750.365 81.8287 750.364 78.8441 750.35 75.8594C750.326 72.0087 750.31 68.1584 750.315 64.3076C750.321 61.286 750.321 58.2638 750.314 55.2422C750.309 53.7956 750.305 52.3489 750.301 50.9023C750.31 42.9964 751.592 32.9603 746.688 26.1875L745 25C742.875 23.3125 742.875 23.3125 740 22Z" fill="#082443"/>
<path d="M623 10.9998C635.246 -0.822343 656.019 -3.22735 670.25 6.62478C679.671 14.4596 683.492 23.0803 685 34.9998C685.096 37.2753 685.148 39.5534 685.161 41.8308C685.171 43.1495 685.181 44.4683 685.191 45.8269C685.195 47.2516 685.2 48.6766 685.203 50.1013C685.208 51.1927 685.208 51.193 685.212 52.3064C685.227 56.1598 685.236 60.0135 685.24 63.867C685.246 67.8103 685.27 71.7538 685.298 75.697C685.317 78.7615 685.322 81.8259 685.323 84.8904C685.326 86.3421 685.335 87.7942 685.348 89.2459C685.46 102.402 684.517 115.358 676 126C673.539 128.451 671.002 130.263 668 132C666.977 132.618 666.977 132.619 665.934 133.25C656.954 137.747 644.844 137.771 635.352 134.894C626.62 130.792 620.564 125.422 616.824 116.504C614.791 110.327 613.749 104.882 613.726 98.366C613.721 97.6494 613.715 96.9325 613.71 96.1941C613.696 93.8507 613.697 91.5073 613.699 89.1638C613.695 87.5178 613.69 85.8714 613.686 84.2254C613.678 80.7843 613.679 77.3432 613.685 73.9021C613.691 69.5156 613.673 65.1294 613.65 60.7429C613.635 57.3456 613.635 53.948 613.638 50.5506C613.637 48.9347 613.631 47.3188 613.621 45.7029C613.55 32.7057 614.842 21.6386 623 10.9998ZM655.813 23.2498C650.334 20.8147 644.615 20.8974 640 24.9998C635.382 31.8024 635.381 31.8027 635.486 46.9656C635.498 48.5247 635.504 50.0842 635.504 51.6433C635.498 54.9145 635.497 58.1857 635.516 61.4568C635.545 65.6876 635.565 69.9182 635.554 74.1492C635.544 77.4635 635.542 80.7782 635.551 84.0925C635.557 85.6775 635.562 87.2625 635.567 88.8474C635.561 91.1087 635.557 93.3694 635.575 95.6306C635.582 96.3418 635.589 97.0322 635.596 97.7224C635.61 100.936 635.638 103.842 636.6 106.922C638.503 111.651 640.357 113.81 645 116C649.366 116.579 653.842 116.618 657.5 113.875C660.541 110.074 661.88 106.173 662.367 101.407C662.364 100.096 662.36 98.8238 662.357 97.5515C662.363 95.3117 662.365 93.0726 662.348 90.8328C662.335 89.2366 662.326 87.6399 662.323 86.0437C662.322 82.7047 662.317 79.3651 662.298 76.0261C662.27 71.6944 662.246 67.3629 662.24 63.031C662.237 59.6416 662.23 56.2515 662.22 52.8621C662.214 51.2466 662.209 49.6309 662.203 48.0154C662.198 45.6954 662.191 43.3754 662.176 41.0554C662.171 40.333 662.166 39.6316 662.161 38.9304C662.149 36.6197 662.105 34.3082 662 31.9998C660.684 28.0506 659.064 25.8505 655.813 23.2498Z" fill="#082443"/>
<path d="M532 3.00002C579.304 3.00002 579.304 3.00002 589.902 12.75C599.245 22.5466 600.484 34.3606 600.281 47.336C599.878 57.2396 596.507 67.4519 589.418 74.5938C585.529 78 585.529 78 583 78C583.225 78.6868 583.451 79.3735 583.684 80.0811C585.804 86.5407 587.923 93.0014 590.041 99.4619C591.13 102.783 592.219 106.105 593.31 109.426C594.562 113.24 595.812 117.056 597.062 120.871C597.456 122.069 597.85 123.267 598.256 124.501C598.616 125.602 598.976 126.703 599.348 127.838C599.667 128.813 599.987 129.788 600.316 130.792C601 133 601 133 601 134H578C569.214 105.806 569.214 105.806 565.438 93.3125C565.187 92.4892 564.936 91.6657 564.678 90.8174C563 85.2362 563 85.2362 563 83H554V134H532V3.00002ZM554 64C568 64 568 64 571.625 62.6875C575.243 58.5929 576.801 54.2977 578 49C578.775 40.6486 578.289 33.7587 573 27C568 24 568 24 554 24V64Z" fill="#082443"/>
<path d="M499 170C545.017 170 545.017 170 555 178C563.976 186.976 565.339 197.37 565.388 209.452C565.225 220.654 561.746 229.776 554 238C544.21 246.232 533.64 245 521 245V293H499V170ZM521 226C536 226 536 226 540 223C542.959 218.808 543.916 216.176 544.285 211.023C544.417 203.169 544.633 197.09 539 191C534.862 188 534.862 188 521 188V226Z" fill="#082443"/>
<path d="M0 4.00002C47.5946 4.00002 47.5946 4.00002 56.9531 11.7656C64.6757 20.1956 66.4973 30.104 66.2734 41.1016C65.6627 49.8089 62.5624 56.101 56.7812 62.5391C54.8418 64.1297 53.4528 64.602 51 65V67L53.6875 67.6875C60.1924 70.2649 63.8749 75.9541 67 82C70.0141 92.0095 69.7171 107.267 65.3906 116.742C60.9214 123.998 55.993 128.972 48 132C32.2971 135.141 16.0139 134 0 134V4.00002ZM21 115C32.29 115 35.741 116.715 43 110C45.534 105.934 46.3484 102.731 46.3125 97.9317L46.25 95.8125C46.2013 89.1001 45.6162 85.1291 41 80C36 77 36 77 21 77V115ZM21 58C27.9948 58 33.7549 59.0861 39.625 55.3125C43.2904 51.7436 44.8592 49.0555 45.2148 43.8633C45.2928 36.1248 45.5121 30.8101 40 25C35.9655 22 35.9655 22 21 22V58Z" fill="#082443"/>
<path d="M189 170C236.301 170 236.301 170 245.281 178.809C254.205 190.187 255.13 203.11 254 217C252.576 224.42 249.678 231.789 244 237C242.345 237.696 240.679 238.366 239 239C239.337 240.007 239.675 241.014 240.022 242.051C241.301 245.867 242.577 249.685 243.853 253.502C244.4 255.139 244.948 256.776 245.496 258.412C248.355 266.943 251.187 275.482 253.895 284.062C254.216 285.072 254.215 285.072 254.543 286.102C256 290.762 256 290.762 256 293H234L220 246L211 245V293H189V170ZM211 227C219.139 227 221.66 228.171 227.5 224.375C231.732 220.355 232.802 217.171 233.32 211.492C233.532 204.401 233.821 197.64 229 192C225.25 189 225.25 189 211 189V227Z" fill="#082443"/>
<path d="M472.223 2.90236L476.041 2.91212C477.382 2.92048 478.722 2.92895 480.062 2.93752C481.407 2.94253 482.751 2.94709 484.096 2.95119C487.397 2.96302 490.699 2.97951 494 3.00002C495.66 8.49769 496.886 14.01 498 19.6416C498.189 20.5841 498.378 21.527 498.572 22.4981C499.194 25.6049 499.812 28.7126 500.43 31.8203C500.865 34.002 501.301 36.1837 501.737 38.3652C502.652 42.9428 503.565 47.5214 504.477 52.0996C505.633 57.9077 506.792 63.7153 507.952 69.5225C509.071 75.1214 510.188 80.721 511.305 86.3203C511.512 87.3609 511.721 88.4015 511.935 89.4736C514.083 100.241 516.214 111.012 518.294 121.793C518.467 122.678 518.639 123.564 518.817 124.476C518.973 125.291 519.129 126.106 519.29 126.945C519.428 127.659 519.565 128.372 519.707 129.107C520 131 520 131 520 134H497C494.783 125.229 493.496 117.033 493 108H467C466.426 113.189 466.427 113.189 465.864 118.379C465.788 119.047 465.711 119.714 465.633 120.402C465.559 121.067 465.487 121.733 465.411 122.418C464.792 126.312 463.855 130.15 463 134H441C442.356 123.987 444.044 114.091 445.977 104.176C446.266 102.675 446.556 101.173 446.845 99.6719C447.454 96.5114 448.066 93.3512 448.679 90.1914C450.11 82.8159 451.532 75.4388 452.954 68.0615C453.269 66.4302 453.583 64.7983 453.897 63.167C455.857 53.0071 457.791 42.8434 459.668 32.668C459.953 31.1221 459.953 31.122 460.244 29.5449C461.095 24.9222 461.94 20.298 462.778 15.6729C463.067 14.0944 463.356 12.5159 463.645 10.9375C463.77 10.234 463.895 9.5305 464.024 8.80568C465.084 3.0392 465.084 3.03898 468.684 2.88673C469.851 2.89197 471.019 2.89696 472.223 2.90236ZM479 33C478.421 37.9763 477.707 42.895 476.819 47.8252C476.512 49.5131 476.207 51.2018 475.904 52.8906C475.417 55.6148 474.928 58.339 474.438 61.0625C473.942 63.7894 473.447 66.5167 472.96 69.2451C472.802 70.13 472.649 70.9888 472.496 71.8477C472.342 72.686 472.192 73.4998 472.042 74.3135C471.901 75.1113 471.764 75.8858 471.627 76.6602C471 80.1255 471 80.1257 471 88H489C489 84.0001 489 84 488.696 81.583C488.55 80.6587 488.408 79.7614 488.266 78.8643C488.101 77.8127 487.94 76.7921 487.78 75.7715C487.6 74.6434 487.425 73.5481 487.25 72.4531C486.696 68.9382 486.141 65.4234 485.582 61.9092C485.193 59.4632 484.805 57.0166 484.418 54.5703C483.282 47.3798 482.144 40.1893 481 33H479Z" fill="#082443"/>
<path d="M160.502 212.117C161.818 218.637 163.134 225.156 164.45 231.676C165.721 237.972 166.992 244.268 168.263 250.563C168.747 252.961 169.23 255.358 169.714 257.756C170.394 261.123 171.074 264.492 171.754 267.859C171.952 268.842 172.151 269.826 172.355 270.839C172.726 272.676 173.095 274.514 173.464 276.352C173.83 278.16 174.204 279.967 174.584 281.772C174.768 282.655 174.951 283.537 175.141 284.446C175.389 285.618 175.389 285.618 175.642 286.813C176 289 176 289 176 293H154L150 269H126C125.054 276.15 125.054 276.15 124.115 283.301C123.996 284.189 123.877 285.077 123.754 285.992C123.633 286.903 123.513 287.815 123.389 288.754C123 291 123 291 122 293H101C102.624 278.848 105.419 264.944 108.163 250.973C108.836 247.542 109.504 244.11 110.173 240.678C111.388 234.443 112.607 228.21 113.829 221.977C115.154 215.218 116.473 208.459 117.793 201.699C119.857 191.132 121.927 180.566 124 170H152C154.834 184.039 157.668 198.078 160.502 212.117ZM137 200C135.391 209.565 133.836 219.139 132.286 228.714C132.009 230.426 131.732 232.139 131.454 233.852C130.636 238.901 129.818 243.95 129 249H147C147 247 147 247 146.696 244.976C146.55 244.12 146.408 243.289 146.266 242.459C146.101 241.49 145.94 240.548 145.78 239.607C145.6 238.559 145.425 237.541 145.25 236.523C144.695 233.272 144.14 230.02 143.582 226.769C143.193 224.503 142.805 222.237 142.418 219.971C141.281 213.313 140.142 206.657 139 200H137Z" fill="#082443"/>
<path d="M697 170C700.369 183.475 700.369 183.475 701.332 188.586C701.567 189.813 701.801 191.04 702.043 192.305C702.167 192.962 702.291 193.619 702.419 194.296C704.887 207.342 707.465 220.366 710.092 233.381C710.571 235.755 711.049 238.13 711.527 240.505C713.466 250.131 713.466 250.132 715.415 259.756C716.196 263.599 716.972 267.444 717.745 271.289C718.035 272.728 718.326 274.167 718.62 275.604C719.026 277.595 719.427 279.586 719.826 281.578C720.054 282.702 720.281 283.826 720.516 284.983C721 288 721 288 721 293H699L697.5 284.938C697.343 284.114 697.187 283.29 697.025 282.441C696.904 281.769 696.782 281.096 696.656 280.402C696.531 279.727 696.405 279.051 696.275 278.355C695.913 275.257 696 272.12 696 269H671L670.625 274.812C670.157 280.993 669.215 286.925 668 293H646C648.124 282.062 650.249 271.125 652.375 260.188C652.533 259.376 652.69 258.565 652.853 257.729C658.538 228.48 664.253 199.237 670 170H697ZM683 199C682.185 203.711 681.371 208.423 680.561 213.135C680.228 215.069 679.895 217.003 679.562 218.938C679.072 221.769 678.582 224.601 678.096 227.434C677.937 228.358 677.783 229.255 677.629 230.152C676.538 236.425 675.649 242.665 675 249H692C692 245 692 245 691.696 242.772C691.55 241.94 691.408 241.131 691.266 240.323C691.101 239.375 690.94 238.454 690.78 237.533C690.6 236.518 690.425 235.532 690.25 234.547C689.696 231.379 689.141 228.212 688.582 225.045C688.193 222.841 687.805 220.638 687.418 218.434C686.283 211.955 685.144 205.477 684 199H683Z" fill="#082443"/>
</svg>
