<svg width="1024" height="1024" viewBox="0 0 1024 1024" fill="none" xmlns="http://www.w3.org/2000/svg">
<g clip-path="url(#clip0_13_6)">
<path d="M0 0C337.92 0 675.84 0 1024 0C1024 337.92 1024 675.84 1024 1024C686.08 1024 348.16 1024 0 1024C0 686.08 0 348.16 0 0Z" fill="#32383E"/>
<path d="M0 0C337.92 0 675.84 0 1024 0C1024 337.92 1024 675.84 1024 1024C686.08 1024 348.16 1024 0 1024C0 686.08 0 348.16 0 0ZM332.436 92.9087C330.003 93.9985 327.559 95.0552 325.109 96.1055C304.514 105.021 285.055 116.188 266 128C265.283 128.44 264.567 128.88 263.828 129.333C245.944 140.354 228.498 153.24 213 167.438C208 172 208 172 205.96 173.795C198.936 180.011 192.286 186.561 185.667 193.202C183.809 195.066 181.945 196.925 180.08 198.783C174.174 204.686 168.376 210.603 163 217C162.143 217.976 161.286 218.952 160.402 219.957C149.275 232.848 139.164 246.648 130 261C129.619 261.593 129.238 262.186 128.846 262.797C91.0216 321.864 66.3267 390.156 59 460C58.8843 461.095 58.7686 462.19 58.6494 463.319C55.5836 494.008 56.0082 525.328 59 556C59.0965 557.057 59.193 558.114 59.2925 559.203C67.9347 652.195 108.157 746.504 171.617 815.398C173.681 817.652 175.694 819.935 177.688 822.25C180.431 825.412 183.331 828.356 186.32 831.285C187.959 832.958 189.449 834.693 190.938 836.5C193.652 839.732 196.662 842.399 199.875 845.125C202.131 847.116 204.215 849.218 206.312 851.375C211.225 856.338 216.54 860.656 222 865C223.135 865.925 224.269 866.85 225.402 867.777C240.236 879.861 255.763 890.886 272 901C273.148 901.717 273.148 901.717 274.318 902.448C358.141 954.52 458.612 977.281 571 966C572.464 965.793 573.929 965.587 575.394 965.382C612.369 960.133 648.348 951.086 683 937C684.249 936.496 684.249 936.496 685.522 935.982C732.113 917.044 775.549 889.664 812.41 855.379C814.428 853.525 816.473 851.741 818.555 849.961C823.754 845.426 828.607 840.543 833.473 835.657C835.06 834.065 836.652 832.479 838.244 830.893C843.706 825.435 849.018 819.904 854 814C854.912 812.944 855.825 811.888 856.738 810.832C867.888 797.753 878.082 784.028 888 770C888.433 769.39 888.866 768.78 889.312 768.151C898.104 755.661 905.541 742.313 913 729C913.48 728.144 913.96 727.287 914.455 726.405C935.44 688.613 949.19 647.235 958.327 605.103C958.796 602.94 959.275 600.779 959.761 598.62C971.707 544.786 970.959 487.107 961 433C960.801 431.894 960.601 430.788 960.396 429.649C946.894 356.048 915.893 286.386 869 228C868.17 226.955 867.341 225.909 866.512 224.863C860.972 217.966 855.032 211.464 849 205C847.776 203.682 846.552 202.365 845.328 201.047C844.073 199.698 842.818 198.349 841.562 197C840.971 196.365 840.38 195.73 839.771 195.075C838.186 193.378 836.594 191.688 835 190C834.246 189.196 833.492 188.391 832.715 187.562C831.14 185.775 831.14 185.775 829 186C828.741 185.404 828.482 184.809 828.215 184.195C826.902 181.823 825.642 180.596 823.562 178.875C820.25 176.08 817.048 173.203 813.875 170.25C807.529 164.466 800.818 159.211 794 154C793.023 153.25 792.046 152.5 791.039 151.727C776.53 140.716 761.573 130.448 746 121C745.202 120.516 744.404 120.031 743.581 119.532C683.208 83.2501 614.113 61.5838 544 56C543.153 55.9309 542.306 55.8617 541.433 55.7905C536.291 55.3898 531.156 55.1374 526 55C525.238 54.9781 524.476 54.9562 523.691 54.9336C458.358 53.3453 392.045 66.0085 332.436 92.9087Z" fill="#252A2F"/>
<path d="M411.875 542.875C432.267 552.571 452.831 560.487 475 565C475.858 565.176 476.716 565.353 477.6 565.535C498.722 569.675 521.808 569.843 543 566C543.904 565.839 544.808 565.677 545.739 565.511C571.431 560.807 596.479 552.158 619.461 539.602C626.634 536.356 631.955 538.406 638.996 540.996C640.132 541.43 641.267 541.865 642.438 542.312C643.626 542.761 644.815 543.21 646.039 543.672C657.951 548.242 669.532 553.417 681 559C681.824 559.396 682.647 559.792 683.496 560.201C708.495 572.336 730.95 588.872 751 608C751.715 608.651 752.431 609.302 753.168 609.973C770.573 626.301 782.396 649.296 789 672C789.293 672.99 789.293 672.99 789.592 674C794.186 689.869 795.318 705.81 795.301 722.242C795.305 723.828 795.309 725.414 795.314 727C795.321 730.289 795.321 733.578 795.316 736.867C795.31 741.053 795.327 745.238 795.35 749.423C795.365 752.685 795.366 755.947 795.363 759.209C795.363 760.752 795.368 762.295 795.378 763.837C795.46 777.901 793.793 790.033 784.289 800.969C740.946 842.666 625.331 839.01 570.098 841.734C567.033 841.887 563.972 842.063 560.911 842.288C546.232 843.327 531.521 843.2 516.813 843.187C516.085 843.187 515.357 843.187 514.607 843.187C472.884 843.167 431.52 841.18 390 837C389.205 836.92 388.411 836.84 387.592 836.758C261.354 823.944 261.354 823.944 237.188 798.059C228.96 787.877 228.397 777.323 228.469 764.77C228.466 763.09 228.462 761.411 228.457 759.731C228.451 756.215 228.46 752.7 228.479 749.184C228.501 744.748 228.488 740.314 228.465 735.878C228.382 717.266 228.558 699.197 233 681C233.254 679.945 233.254 679.945 233.513 678.868C244.846 632.615 277.387 598.416 317 574C337.926 561.34 359.518 550.694 382.382 542.008C384.005 541.383 385.62 540.736 387.22 540.055C397.03 535.968 402.878 538.404 411.875 542.875Z" fill="#F0F0F1"/>
<path d="M578 206C579.147 206.512 580.295 207.024 581.477 207.551C591.014 212.061 599.518 217.762 608 224C609.398 225.027 609.398 225.027 610.824 226.074C636.114 245.787 654.002 271.026 665 301C665.236 301.63 665.471 302.26 665.714 302.91C679.882 341.565 676.479 386.594 660 424C641.585 463.635 610.724 494.564 570 511C528.709 526.001 484.115 524.569 444.109 506.441C405.089 488.124 374.528 453.304 359.813 412.875C356.317 402.815 354.086 392.428 352 382C351.751 380.79 351.502 379.579 351.246 378.332C344.719 340.857 354.082 297.939 375.738 266.779C382.516 257.223 389.92 248.478 398 240C398.766 239.17 399.531 238.34 400.32 237.484C411.973 225.239 425.916 215.527 441 208C441.632 207.683 442.264 207.367 442.915 207.041C457.528 199.869 473.81 194.833 490 193C490.704 192.916 491.408 192.832 492.134 192.746C521.626 189.463 550.92 193.895 578 206Z" fill="#F0F0F1"/>
</g>
<defs>
<clipPath id="clip0_13_6">
<rect width="1024" height="1024" fill="white"/>
</clipPath>
</defs>
</svg>
