<?xml version="1.0" standalone="no"?>
<!DOCTYPE svg PUBLIC "-//W3C//DTD SVG 20010904//EN"
 "http://www.w3.org/TR/2001/REC-SVG-20010904/DTD/svg10.dtd">
<svg version="1.0" xmlns="http://www.w3.org/2000/svg"
 width="1024.000000pt" height="1024.000000pt" viewBox="0 0 1024.000000 1024.000000"
 preserveAspectRatio="xMidYMid meet">
<metadata>
Created by potrace 1.16, written by Peter Selinger 2001-2019
</metadata>
<g transform="translate(0.000000,1024.000000) scale(0.100000,-0.100000)"
fill="#000000" stroke="none">
<path d="M0 5120 l0 -5120 5120 0 5120 0 0 5120 0 5120 -5120 0 -5120 0 0
-5120z m5422 3171 c337 -69 614 -224 869 -488 374 -387 525 -938 408 -1482
-44 -200 -136 -415 -250 -581 -248 -362 -602 -598 -1022 -682 -91 -18 -146
-22 -297 -22 -195 -1 -270 8 -427 50 -259 69 -486 199 -687 393 -251 244 -407
531 -483 890 -24 110 -27 150 -27 316 -1 159 3 208 22 303 67 334 195 578 437
831 263 274 548 425 924 486 120 20 403 12 533 -14z m-1300 -3487 c436 -198
721 -265 1073 -251 310 12 544 74 900 239 119 55 157 68 185 65 60 -8 327
-115 515 -207 281 -138 553 -327 726 -506 224 -232 368 -529 414 -854 20 -143
21 -801 1 -875 -56 -211 -205 -297 -701 -404 -1252 -269 -3051 -263 -4290 15
-408 92 -534 154 -616 306 l-34 63 0 425 0 425 28 127 c15 70 37 158 49 195
32 99 145 318 214 414 118 166 344 365 584 514 245 152 709 363 802 365 14 0
82 -25 150 -56z"/>
</g>
</svg>
