<svg width="867" height="581" viewBox="0 0 867 581" fill="none" xmlns="http://www.w3.org/2000/svg">
<path d="M233 0C233.99 0 234.98 0 236 0C236.053 1.46245 236.053 1.46245 236.107 2.95445C236.44 12.1225 236.779 21.2903 237.122 30.458C237.298 35.1717 237.472 39.8855 237.643 44.5994C237.807 49.1447 237.976 53.6899 238.149 58.2349C238.214 59.9729 238.277 61.7109 238.339 63.449C238.425 65.875 238.517 68.3006 238.611 70.7263C238.636 71.4521 238.66 72.1778 238.685 72.9256C238.545 76.2496 238.545 76.2496 240 79C240 81.97 240 84.94 240 88C245.94 88 251.88 88 258 88C258 85.03 258 82.06 258 79C258.33 78.01 258.66 77.02 259 76C259.212 73.3824 259.376 70.782 259.5 68.1602C259.54 67.374 259.581 66.5878 259.622 65.7777C259.752 63.2062 259.876 60.6344 260 58.0625C260.088 56.2921 260.177 54.5218 260.265 52.7515C260.841 41.0944 261.325 29.4365 261.658 17.7698C261.841 11.7917 262.25 5.93472 263 0C263.66 0 264.32 0 265 0C266.026 5.2547 266.305 10.4353 266.535 15.7695C266.578 16.7158 266.621 17.662 266.666 18.637C266.803 21.6953 266.933 24.7538 267.062 27.8125C267.107 28.8463 267.152 29.8802 267.198 30.9454C267.86 46.3067 268.281 61.6229 268 77C268.66 77 269.32 77 270 77C270.061 77.8572 270.121 78.7145 270.184 79.5977C270.611 85.4361 271.059 91.2206 272 97C273.299 97.1444 274.599 97.2887 275.938 97.4375C279.875 97.875 279.875 97.875 281 99C281.095 101.83 281.126 104.636 281.114 107.467C281.114 108.355 281.114 109.242 281.114 110.157C281.113 113.106 281.105 116.055 281.098 119.004C281.096 121.043 281.094 123.082 281.093 125.12C281.09 130.498 281.08 135.875 281.069 141.253C281.058 146.736 281.054 152.218 281.049 157.701C281.038 168.467 281.02 179.234 281 190C286.94 190.66 292.88 191.32 299 192C299.33 230.61 299.66 269.22 300 309C303.3 309.33 306.6 309.66 310 310C311.32 310.33 312.64 310.66 314 311C314 348.95 314 386.9 314 426C317.3 426.33 320.6 426.66 324 427C325.32 427.33 326.64 427.66 328 428C328.025 434.639 328.043 441.277 328.055 447.916C328.06 450.175 328.067 452.434 328.075 454.693C328.088 457.937 328.093 461.182 328.098 464.426C328.103 465.438 328.108 466.451 328.113 467.494C328.113 468.905 328.113 468.905 328.114 470.345C328.116 471.173 328.118 472.002 328.12 472.855C328 475 328 475 327 478C328.822 476.487 330.6 474.941 332.359 473.355C333.765 472.102 335.178 470.855 336.639 469.667C345.046 462.995 345.046 462.995 349.02 453.414C349.349 449.259 349.174 445.159 349 441C349.33 440.67 349.66 440.34 350 440C350.109 438.426 350.149 436.846 350.161 435.268C350.176 433.756 350.176 433.756 350.19 432.214C350.194 431.116 350.199 430.018 350.203 428.887C350.209 427.766 350.215 426.645 350.22 425.489C350.23 423.111 350.236 420.733 350.24 418.355C350.25 414.713 350.281 411.073 350.312 407.432C350.319 405.125 350.324 402.818 350.328 400.512C350.347 398.874 350.347 398.874 350.366 397.203C350.361 395.677 350.361 395.677 350.356 394.12C350.36 393.226 350.364 392.332 350.367 391.41C349.928 388.529 348.832 387.218 347 385C346.785 383 346.785 383 347.062 381C347.136 380.34 347.209 379.68 347.285 379C348 377 348 377 349.859 375.379C353.123 371.751 353.938 367.586 355.188 362.938C355.449 361.998 355.71 361.058 355.979 360.089C357.68 353.763 358.969 347.582 359 341C360.32 341 361.64 341 363 341C362.941 342.087 362.881 343.173 362.82 344.293C362.823 349.883 364.347 354.973 365.875 360.312C366.144 361.301 366.414 362.289 366.691 363.307C368.241 368.914 368.241 368.914 371 374C374.933 372.689 375.315 371.207 377.328 367.637C377.964 366.521 378.599 365.405 379.254 364.256C379.92 363.067 380.585 361.877 381.25 360.688C382.547 358.4 383.843 356.112 385.141 353.824C386.094 352.105 386.094 352.105 387.066 350.351C389 347 389 347 391.027 344.01C396.449 335.843 396.9 329.227 396.5 319.562C396.473 318.214 396.45 316.866 396.43 315.518C396.361 308.818 396.361 308.818 395.331 302.229C395.167 301.126 395.167 301.126 395 300C395.779 299.241 396.557 298.481 397.359 297.699C400.828 294.154 400.921 291.596 401.25 286.812C401.934 279.132 401.934 279.132 403 277C403.099 274.141 403.14 271.308 403.133 268.449C403.134 267.598 403.135 266.747 403.136 265.871C403.136 264.067 403.135 262.264 403.13 260.461C403.125 257.709 403.13 254.957 403.137 252.205C403.136 250.453 403.135 248.701 403.133 246.949C403.136 245.718 403.136 245.718 403.139 244.461C403.126 241.189 403.06 238.276 402.367 235.066C402.246 234.384 402.125 233.702 402 233C402.66 232.34 403.32 231.68 404 231C404.368 229.067 404.368 229.067 404.414 226.867C404.453 226.062 404.491 225.256 404.531 224.426C404.578 223.163 404.578 223.163 404.625 221.875C404.664 221.026 404.702 220.176 404.742 219.301C404.837 217.201 404.919 215.1 405 213C405.66 213 406.32 213 407 213C407.33 214.65 407.66 216.3 408 218C408.66 218 409.32 218 410 218C410.032 217.355 410.065 216.71 410.098 216.045C410.745 206.189 412.593 196.623 414.438 186.938C414.754 185.255 415.07 183.572 415.385 181.889C415.986 178.68 416.59 175.471 417.196 172.263C417.333 171.535 417.47 170.807 417.612 170.057C417.962 168.202 418.312 166.348 418.662 164.493C418.843 163.518 419.024 162.543 419.211 161.539C419.362 160.73 419.514 159.922 419.669 159.088C420.238 155.497 420.647 152.294 419 149C419.66 149 420.32 149 421 149C421 147.68 421 146.36 421 145C421.66 145 422.32 145 423 145C423.66 146.98 424.32 148.96 425 151C424.34 151 423.68 151 423 151C424.269 158.112 425.538 165.223 426.808 172.335C427.398 175.638 427.987 178.941 428.577 182.244C429.257 186.055 429.937 189.865 430.617 193.676C430.93 195.428 430.93 195.428 431.249 197.216C432.486 204.146 433.736 211.074 435 218C435.33 216.02 435.66 214.04 436 212C436.66 212 437.32 212 438 212C438.049 213.265 438.098 214.529 438.148 215.832C438.223 217.492 438.299 219.152 438.375 220.812C438.421 222.063 438.421 222.063 438.469 223.338C438.507 224.14 438.546 224.943 438.586 225.77C438.633 226.877 438.633 226.877 438.681 228.007C438.908 230.313 438.908 230.313 441 233C441.203 235.031 441.203 235.031 441.135 237.38C441.105 238.701 441.105 238.701 441.074 240.048C441.042 240.995 441.01 241.942 440.977 242.918C440.952 243.89 440.927 244.863 440.901 245.865C440.819 248.973 440.722 252.08 440.625 255.188C440.567 257.294 440.509 259.4 440.453 261.506C440.313 266.671 440.16 271.835 440 277C440.66 277 441.32 277 442 277C442.037 277.857 442.075 278.714 442.113 279.598C442.363 289.528 442.363 289.528 447 298C446.952 300.805 446.845 303.589 446.711 306.391C446.654 308.151 446.601 309.911 446.551 311.672C446.471 314.446 446.377 317.214 446.225 319.984C445.423 332.677 445.423 332.677 450.742 343.801C453.041 346.352 455.477 348.667 458 351C459.641 352.798 461.269 354.608 462.875 356.438C463.593 357.228 464.311 358.018 465.051 358.832C467.445 361.495 469.736 364.225 472 367C476.793 363.351 477.694 358.495 479.188 352.938C479.449 351.998 479.71 351.058 479.979 350.089C481.68 343.763 482.969 337.582 483 331C484.32 331.33 485.64 331.66 487 332C486.943 333.252 486.887 334.503 486.828 335.793C486.833 341.573 488.197 346.776 489.75 352.312C490.003 353.288 490.255 354.263 490.516 355.268C491.91 360.346 492.973 363.442 497 367C497.609 369.359 497.609 369.359 497.75 371.75C497.807 372.549 497.863 373.348 497.922 374.172C497.948 374.775 497.973 375.378 498 376C497.34 376 496.68 376 496 376C496 378.31 496 380.62 496 383C496.887 383.422 496.887 383.422 497.792 383.852C499.804 384.898 501.517 386.008 503.328 387.363C503.956 387.832 504.583 388.301 505.23 388.784C505.896 389.288 506.563 389.793 507.25 390.312C507.944 390.835 508.639 391.358 509.354 391.896C515.298 396.401 521.102 401.069 526.858 405.81C527.489 406.329 528.12 406.848 528.77 407.383C529.599 408.069 529.599 408.069 530.445 408.77C531.905 409.925 533.451 410.967 535 412C540.696 401.554 546.149 391.29 550 380C550.66 380 551.32 380 552 380C552.422 381.216 552.843 382.431 553.277 383.684C553.831 385.268 554.384 386.853 554.938 388.438C555.215 389.24 555.493 390.042 555.779 390.869C556.047 391.633 556.314 392.397 556.59 393.184C556.959 394.244 556.959 394.244 557.336 395.326C557.875 397.007 557.875 397.007 559 398C562.3 391.73 565.6 385.46 569 379C569.66 379 570.32 379 571 379C571 379.66 571 380.32 571 381C602.35 381 633.7 381 666 381C666.99 377.04 667.98 373.08 669 369C669.33 368.34 669.66 367.68 670 367C670.046 364.471 670.047 361.965 670 359.438C669.954 356.952 669.953 354.487 670 352C670.33 351.67 670.66 351.34 671 351C671.101 348.16 671.14 345.345 671.133 342.504C671.134 341.641 671.135 340.779 671.136 339.89C671.136 338.054 671.135 336.219 671.13 334.384C671.125 331.606 671.13 328.827 671.137 326.049C671.136 324.263 671.135 322.477 671.133 320.691C671.135 319.871 671.137 319.051 671.139 318.206C671.738 307.827 671.738 307.827 668 299C668.536 295.464 668.536 295.464 670 294C670.1 292.097 670.131 290.191 670.133 288.285C670.134 287.124 670.135 285.964 670.137 284.768C670.133 283.545 670.129 282.322 670.125 281.062C670.129 279.844 670.133 278.625 670.137 277.369C670.135 276.207 670.134 275.045 670.133 273.848C670.132 272.775 670.131 271.703 670.129 270.598C670.175 268.016 670.175 268.016 669 266C668.632 260.105 669.709 254.798 671 249.062C671.191 248.188 671.382 247.313 671.578 246.412C672.046 244.273 672.52 242.136 673 240C673.66 240 674.32 240 675 240C675.33 242.64 675.66 245.28 676 248C676.419 246.872 676.838 245.744 677.27 244.582C678.398 241.554 679.592 238.562 680.824 235.574C686.41 221.299 687.518 207.264 686 192C685.67 191.67 685.34 191.34 685 191C684.587 185.019 685.402 181.497 688 176C689.724 170.613 690.718 165.254 691.586 159.684C691.728 158.798 691.87 157.911 692.016 156.999C692.473 154.145 692.924 151.291 693.375 148.438C693.996 144.546 694.62 140.656 695.246 136.766C695.398 135.821 695.55 134.875 695.706 133.902C696.99 125.966 698.382 118.056 699.933 110.168C700.725 106.042 701.151 102.2 701 98C701 94 701 94 702 91.3125C703.224 87.2592 703.782 83.2023 703 79C702.01 78.34 701.02 77.68 700 77C700 76.34 700 75.68 700 75C701.32 75 702.64 75 704 75C704 74.01 704 73.02 704 72C704.66 72 705.32 72 706 72C706 72.99 706 73.98 706 75C707.32 75.33 708.64 75.66 710 76C709.267 76.6091 709.267 76.6091 708.52 77.2305C706.181 79.9542 706.655 82.2635 706.762 85.7188C707.069 88.662 707.971 91.2352 709 94C709 95.32 709 96.64 709 98C709.328 110.641 711.647 123.031 713.756 135.468C714.375 139.122 714.981 142.778 715.586 146.434C715.981 148.792 716.377 151.15 716.773 153.508C716.952 154.583 717.13 155.658 717.314 156.766C719.058 169.463 719.058 169.463 724 181C724.23 183.445 724.23 183.445 724.188 186.125C724.181 187.014 724.175 187.904 724.168 188.82C724 191 724 191 723 192C720.704 210.752 725.062 227.393 731 245C731.33 245.99 731.66 246.98 732 248C732.99 245.36 733.98 242.72 735 240C737.318 243.478 737.9 246.66 738.625 250.688C738.759 251.37 738.893 252.053 739.031 252.756C739.922 257.57 740.205 262.103 740 267C739.67 267.33 739.34 267.66 739 268C738.747 272.306 738.815 276.624 738.812 280.938C738.8 282.156 738.788 283.375 738.775 284.631C738.773 285.793 738.772 286.955 738.77 288.152C738.763 289.761 738.763 289.761 738.757 291.402C738.736 294.162 738.736 294.162 741 296C740.464 299.536 740.464 299.536 739 301C737.968 307.478 737.841 314.04 737.832 320.586C737.829 321.45 737.825 322.314 737.822 323.205C737.817 325.011 737.815 326.818 737.815 328.625C737.812 331.389 737.794 334.153 737.775 336.918C737.772 338.682 737.77 340.447 737.77 342.211C737.762 343.034 737.755 343.857 737.748 344.705C737.764 348.693 737.975 351.543 740 355C739.67 355.66 739.34 356.32 739 357C738.67 364.92 738.34 372.84 738 381C767.7 381 797.4 381 828 381C828.66 379.68 829.32 378.36 830 377C830.742 375.886 830.742 375.886 831.5 374.75C833.424 371.222 834.136 367.921 835 364C835.66 364 836.32 364 837 364C837.251 364.709 837.501 365.419 837.76 366.149C841.307 375.791 845.687 384.939 850.22 394.149C851.503 396.757 852.778 399.368 854.051 401.98C854.877 403.67 855.704 405.358 856.531 407.047C856.905 407.813 857.279 408.579 857.665 409.368C858.029 410.106 858.393 410.844 858.768 411.604C859.105 412.297 859.442 412.989 859.79 413.702C860.93 415.979 860.93 415.979 862.295 417.868C867.007 424.909 866.639 431.86 866.476 440.067C866.464 441.6 866.455 443.133 866.448 444.666C866.422 448.749 866.366 452.832 866.304 456.915C866.25 460.755 866.223 464.594 866.195 468.434C866.14 475.195 866.064 481.956 865.978 488.717C865.837 499.702 865.717 510.687 865.6 521.673C865.591 522.534 865.582 523.394 865.573 524.281C865.526 528.663 865.48 533.045 865.433 537.427C865.352 545.128 865.27 552.83 865.187 560.532C865.147 564.257 865.107 567.982 865.067 571.707C865.045 573.805 865.022 575.902 865 578C781.99 578.384 698.979 578.726 422.656 578.879C421.069 578.876 419.483 578.873 417.896 578.871C379.935 578.804 341.975 578.724 304.015 578.637C279.577 578.582 255.139 578.53 230.701 578.482C229.464 578.48 229.464 578.48 228.203 578.477C219.915 578.461 211.626 578.445 203.338 578.428C186.503 578.395 169.668 578.362 152.833 578.328C152.062 578.327 151.291 578.325 150.496 578.324C100.33 578.223 50.1652 578.113 0 578C0 566.78 0 555.56 0 544C10.89 543.67 21.78 543.34 33 543C33 528.81 33 514.62 33 500C40.5293 499.373 47.7439 498.859 55.25 498.938C56.1021 498.942 56.9541 498.947 57.832 498.951C59.8881 498.963 61.944 498.981 64 499C63.9978 498 63.9956 497 63.9933 495.97C63.973 486.566 63.958 477.163 63.9482 467.76C63.943 462.925 63.9359 458.09 63.9246 453.255C63.9137 448.593 63.9077 443.931 63.9051 439.269C63.9033 437.487 63.8997 435.704 63.8943 433.921C63.8871 431.433 63.886 428.945 63.8865 426.457C63.8829 425.713 63.8793 424.968 63.8756 424.201C63.8859 419.114 63.8859 419.114 65 418C67.9963 417.623 70.9783 417.305 73.9844 417.027C74.9098 416.94 75.8352 416.853 76.7886 416.763C78.7658 416.578 80.7431 416.396 82.7207 416.216C85.669 415.945 88.6157 415.66 91.5625 415.373C128.793 411.865 128.793 411.865 142.312 418.5C147.108 420.728 147.108 420.728 152 423C152 435.21 152 447.42 152 460C162.89 460 173.78 460 185 460C185 410.5 185 361 185 310C196 307 196 307 199 307C199 266.41 199 225.82 199 184C205.27 184 211.54 184 218 184C218 155.62 218 127.24 218 98C220.64 97.34 223.28 96.68 226 96C226.99 86.1 226.99 86.1 228 76C228.99 76 229.98 76 231 76C230.995 75.3759 230.99 74.7517 230.984 74.1086C230.879 59.2506 231.046 44.4149 231.438 29.5625C231.467 28.3837 231.467 28.3837 231.497 27.1811C231.728 18.089 232.102 9.05629 233 0Z" fill="#5F1B27"/>
<path d="M704 72C704.66 72 705.32 72 706 72C706 72.99 706 73.98 706 75C707.98 75.495 707.98 75.495 710 76C709.511 76.4061 709.023 76.8121 708.52 77.2305C706.181 79.9542 706.655 82.2635 706.762 85.7188C707.069 88.662 707.971 91.2352 709 94C709 95.32 709 96.64 709 98C709.328 110.641 711.647 123.031 713.756 135.468C714.374 139.122 714.981 142.778 715.586 146.434C715.981 148.792 716.377 151.15 716.773 153.508C716.952 154.583 717.13 155.658 717.314 156.766C719.058 169.463 719.058 169.463 724 181C724.23 183.445 724.23 183.445 724.188 186.125C724.178 187.459 724.178 187.459 724.168 188.82C724 191 724 191 723 192C720.704 210.752 725.062 227.393 731 245C731.33 245.99 731.66 246.98 732 248C732.99 245.36 733.98 242.72 735 240C737.318 243.478 737.9 246.66 738.625 250.688C738.826 251.711 738.826 251.711 739.031 252.756C739.922 257.57 740.205 262.103 740 267C739.67 267.33 739.34 267.66 739 268C738.747 272.306 738.815 276.624 738.812 280.938C738.8 282.156 738.788 283.375 738.775 284.631C738.773 285.793 738.772 286.955 738.77 288.152C738.765 289.225 738.761 290.297 738.757 291.402C738.736 294.162 738.736 294.162 741 296C740.464 299.536 740.464 299.536 739 301C737.968 307.478 737.841 314.04 737.832 320.586C737.829 321.45 737.825 322.314 737.822 323.205C737.817 325.011 737.815 326.818 737.815 328.625C737.812 331.389 737.794 334.153 737.775 336.918C737.772 338.682 737.77 340.447 737.77 342.211C737.762 343.034 737.755 343.857 737.748 344.705C737.764 348.693 737.975 351.543 740 355C739.67 355.66 739.34 356.32 739 357C738.67 364.92 738.34 372.84 738 381C767.7 381 797.4 381 828 381C828.66 379.68 829.32 378.36 830 377C830.742 375.886 830.742 375.886 831.5 374.75C833.424 371.222 834.136 367.921 835 364C835.66 364 836.32 364 837 364C837.251 364.709 837.501 365.419 837.76 366.149C841.307 375.791 845.687 384.939 850.22 394.149C851.503 396.757 852.778 399.368 854.051 401.98C854.877 403.67 855.704 405.358 856.531 407.047C856.905 407.813 857.279 408.579 857.665 409.368C860.289 414.69 863.11 419.798 866 425C865.67 475.49 865.34 525.98 865 578C757.09 578 649.18 578 538 578C538 524.87 538 471.74 538 417C537.01 415.515 537.01 415.515 536 414C536.157 408.192 539.116 403.631 541.875 398.688C545.268 392.591 548.038 386.71 550 380C550.66 380 551.32 380 552 380C552.632 381.823 552.632 381.823 553.277 383.684C553.831 385.268 554.384 386.853 554.938 388.438C555.354 389.641 555.354 389.641 555.779 390.869C556.047 391.633 556.314 392.397 556.59 393.184C556.836 393.891 557.082 394.598 557.336 395.326C557.875 397.007 557.875 397.007 559 398C562.3 391.73 565.6 385.46 569 379C569.66 379 570.32 379 571 379C571 379.66 571 380.32 571 381C602.35 381 633.7 381 666 381C666.99 377.04 667.98 373.08 669 369C669.33 368.34 669.66 367.68 670 367C670.046 364.471 670.047 361.965 670 359.438C669.954 356.952 669.953 354.487 670 352C670.33 351.67 670.66 351.34 671 351C671.101 348.16 671.14 345.345 671.133 342.504C671.134 341.641 671.135 340.779 671.136 339.89C671.136 338.054 671.135 336.219 671.13 334.384C671.125 331.606 671.13 328.827 671.137 326.049C671.136 324.263 671.135 322.477 671.133 320.691C671.136 319.461 671.136 319.461 671.139 318.206C671.738 307.827 671.738 307.827 668 299C668.536 295.464 668.536 295.464 670 294C670.1 292.097 670.131 290.191 670.133 288.285C670.135 286.544 670.135 286.544 670.137 284.768C670.133 283.545 670.129 282.322 670.125 281.062C670.129 279.844 670.133 278.625 670.137 277.369C670.135 276.207 670.134 275.045 670.133 273.848C670.131 272.239 670.131 272.239 670.129 270.598C670.175 268.016 670.175 268.016 669 266C668.632 260.105 669.709 254.798 671 249.062C671.191 248.188 671.382 247.313 671.578 246.412C672.046 244.273 672.52 242.136 673 240C673.66 240 674.32 240 675 240C675.33 242.64 675.66 245.28 676 248C676.419 246.872 676.838 245.744 677.27 244.582C678.398 241.554 679.592 238.562 680.824 235.574C686.41 221.299 687.518 207.264 686 192C685.67 191.67 685.34 191.34 685 191C684.587 185.019 685.402 181.497 688 176C689.724 170.613 690.718 165.254 691.586 159.684C691.728 158.798 691.87 157.911 692.016 156.999C692.473 154.145 692.924 151.291 693.375 148.438C693.996 144.546 694.62 140.656 695.246 136.766C695.398 135.821 695.55 134.875 695.706 133.902C696.99 125.966 698.382 118.056 699.933 110.168C700.725 106.042 701.152 102.2 701 98C701 94 701 94 702 91.3125C703.224 87.2592 703.782 83.2023 703 79C702.01 78.34 701.02 77.68 700 77C700 76.34 700 75.68 700 75C701.32 75 702.64 75 704 75C704 74.01 704 73.02 704 72Z" fill="#082443"/>
<path d="M418.5 496.875C422.442 498.649 425.723 501.112 428.164 504.72C429.34 507.928 429.223 510.76 429.195 514.172C429.192 514.854 429.19 515.537 429.187 516.24C429.176 518.41 429.15 520.58 429.125 522.75C429.115 524.225 429.106 525.701 429.098 527.176C429.077 530.784 429.038 534.392 429 538C421.74 538 414.48 538 407 538C406.931 533.837 406.871 529.676 406.835 525.512C406.82 524.098 406.8 522.684 406.774 521.27C406.737 519.229 406.72 517.189 406.707 515.148C406.691 513.923 406.676 512.698 406.659 511.435C407.154 506.448 409.014 502.329 412.875 499.062C416 497 416 497 418.5 496.875Z" fill="#C8D0D9"/>
<path d="M694 261C694.66 261 695.32 261 696 261C696.66 262.65 697.32 264.3 698 266C698.99 264.35 699.98 262.7 701 261C705.188 262.318 706.935 263.727 709.25 267.438C709.75 268.22 710.25 269.002 710.766 269.809C713.386 274.462 713.705 278.851 712.539 284.059C710.842 289.339 708.515 291.83 704 295C700.89 296.555 698.437 296.286 695 296C689.914 293.261 686.83 290.49 685 285C684.512 278.494 684.095 272.52 688 267C690.625 264.188 690.625 264.188 693 262C693.33 261.67 693.66 261.34 694 261Z" fill="#C8D0D9"/>
<path d="M430 419C430.99 419 431.98 419 433 419C436.766 423.337 436.392 427.811 436.293 433.238C436.289 434.119 436.284 435 436.28 435.907C436.263 438.709 436.226 441.511 436.188 444.312C436.172 446.217 436.159 448.121 436.146 450.025C436.113 454.684 436.062 459.342 436 464C433.36 464 430.72 464 428 464C427.95 458.395 427.914 452.79 427.89 447.185C427.88 445.279 427.866 443.373 427.849 441.467C427.825 438.724 427.814 435.981 427.805 433.238C427.794 432.389 427.784 431.54 427.773 430.665C427.773 426.317 427.965 422.96 430 419Z" fill="#C8D0D9"/>
<path d="M404 419C407 420 407 420 408.173 421.805C409.035 424.092 409.242 425.694 409.227 428.126C409.227 429.327 409.227 429.327 409.227 430.552C409.216 431.406 409.206 432.26 409.195 433.141C409.192 434.023 409.19 434.905 409.187 435.814C409.176 438.626 409.15 441.438 409.125 444.25C409.115 446.159 409.106 448.068 409.098 449.977C409.076 454.651 409.041 459.326 409 464C406.36 464 403.72 464 401 464C400.926 458.395 400.871 452.79 400.835 447.185C400.82 445.279 400.8 443.373 400.774 441.467C400.737 438.724 400.72 435.981 400.707 433.238C400.692 432.389 400.676 431.54 400.66 430.665C400.659 425.916 400.987 422.91 404 419Z" fill="#C8D0D9"/>
<path d="M417 419C417.99 419 418.98 419 420 419C420 420.32 420 421.64 420 423C420.66 423 421.32 423 422 423C422 436.53 422 450.06 422 464C419.36 464 416.72 464 414 464C413.926 458.716 413.871 453.433 413.835 448.149C413.82 446.354 413.8 444.559 413.774 442.763C413.737 440.174 413.72 437.586 413.707 434.996C413.692 434.201 413.676 433.406 413.66 432.587C413.659 427.314 414.622 423.715 417 419Z" fill="#C8D0D9"/>
<path d="M704 72C704.66 72 705.32 72 706 72C706 72.99 706 73.98 706 75C707.32 75.33 708.64 75.66 710 76C709.511 76.4061 709.023 76.8121 708.52 77.2305C706.181 79.9542 706.655 82.2635 706.762 85.7188C707.069 88.662 707.971 91.2352 709 94C709 98.1275 708.545 101.915 708 106C707 104 706 102 705 100C704.34 101.98 703.68 103.96 703 106C702.67 106 702.34 106 702 106C700.558 95.1871 700.558 95.1871 702 91.3125C703.224 87.2592 703.782 83.2023 703 79C702.01 78.34 701.02 77.68 700 77C700 76.34 700 75.68 700 75C701.32 75 702.64 75 704 75C704 74.01 704 73.02 704 72Z" fill="#0A1A32"/>
<path d="M426 255C428 257 428 257 428.227 259.889C428.217 261.094 428.206 262.298 428.195 263.539C428.186 265.492 428.186 265.492 428.176 267.484C428.159 268.865 428.142 270.245 428.125 271.625C428.115 273.013 428.106 274.401 428.098 275.789C428.074 279.193 428.041 282.596 428 286C427.01 286 426.02 286 425 286C422.244 283.244 423.814 274.78 423.813 271.062C423.8 269.748 423.788 268.434 423.775 267.08C423.772 265.202 423.772 265.202 423.77 263.285C423.765 262.129 423.761 260.973 423.757 259.781C424 257 424 257 426 255Z" fill="#C8D0D9"/>
<path d="M421 392C425.875 393.875 425.875 393.875 427 395C427.073 397.697 427.092 400.367 427.062 403.062C427.058 403.821 427.053 404.58 427.049 405.361C427.037 407.241 427.019 409.12 427 411C425.334 411.043 423.666 411.041 422 411C421 410 421 410 420.886 408.234C420.892 407.485 420.897 406.736 420.902 405.965C420.906 405.156 420.909 404.347 420.912 403.514C420.92 402.664 420.929 401.813 420.938 400.938C420.942 400.083 420.947 399.229 420.951 398.35C420.963 396.233 420.981 394.117 421 392Z" fill="#C8D0D9"/>
<path d="M416 392C416 397.94 416 403.88 416 410C414.02 410 412.04 410 410 410C409.919 407.562 409.86 405.126 409.813 402.688C409.787 401.997 409.762 401.307 409.736 400.596C409.663 395.505 409.663 395.505 411.324 393.02C413 392 413 392 416 392Z" fill="#C8D0D9"/>
<path d="M416 258C416.99 258.33 417.98 258.66 419 259C419.058 263.292 419.094 267.583 419.125 271.875C419.142 273.098 419.159 274.322 419.176 275.582C419.182 276.749 419.189 277.915 419.195 279.117C419.206 280.196 419.216 281.275 419.227 282.386C419 285 419 285 417 287C416 286 416 286 415.886 283.316C415.892 282.148 415.897 280.981 415.902 279.777C415.906 278.517 415.909 277.257 415.912 275.959C415.92 274.618 415.929 273.278 415.938 271.938C415.943 270.593 415.947 269.249 415.951 267.904C415.963 264.603 415.979 261.301 416 258Z" fill="#C8D0D9"/>
<path d="M835 364C835.66 364 836.32 364 837 364C837.326 364.869 837.652 365.738 837.988 366.633C838.425 367.785 838.862 368.938 839.312 370.125C839.742 371.262 840.171 372.399 840.613 373.57C841.939 377.024 841.939 377.024 843.73 380.242C845 383 845 383 844 386C843.328 384.711 842.663 383.419 842 382.125C841.629 381.406 841.257 380.686 840.875 379.945C840 378 840 378 840 376C838.68 375.67 837.36 375.34 836 375C835.67 375.66 835.34 376.32 835 377C835 376.34 835 375.68 835 375C834.01 374.67 833.02 374.34 832 374C832.99 370.7 833.98 367.4 835 364Z" fill="#0A1930"/>
<path d="M693 322C693.99 322.33 694.98 322.66 696 323C696 329.6 696 336.2 696 343C695.01 343 694.02 343 693 343C693 336.07 693 329.14 693 322Z" fill="#C8D0D9"/>
<path d="M425 323C425.66 323.33 426.32 323.66 427 324C427 330.27 427 336.54 427 343C426.01 343 425.02 343 424 343C423.971 339.854 423.953 336.708 423.938 333.562C423.929 332.665 423.921 331.767 423.912 330.842C423.909 329.988 423.906 329.134 423.902 328.254C423.894 327.068 423.894 327.068 423.886 325.858C424 324 424 324 425 323Z" fill="#C8D0D9"/>
<path d="M417 323C417.66 323.33 418.32 323.66 419 324C419 330.27 419 336.54 419 343C418.01 343 417.02 343 416 343C415.971 339.854 415.953 336.708 415.938 333.562C415.929 332.665 415.921 331.767 415.912 330.842C415.909 329.988 415.906 329.134 415.902 328.254C415.894 327.068 415.894 327.068 415.886 325.858C416 324 416 324 417 323Z" fill="#C8D0D9"/>
<path d="M703 323C703.66 323.33 704.32 323.66 705 324C705 329.94 705 335.88 705 342C704.01 342 703.02 342 702 342C701.973 339.021 701.953 336.042 701.938 333.062C701.929 332.212 701.921 331.362 701.912 330.486C701.909 329.677 701.906 328.869 701.902 328.035C701.897 327.286 701.892 326.537 701.886 325.766C702 324 702 324 703 323Z" fill="#C8D0D9"/>
<path d="M704 72C704.66 72 705.32 72 706 72C706 72.99 706 73.98 706 75C707.32 75.33 708.64 75.66 710 76C709.519 76.388 709.038 76.776 708.543 77.1758C706.543 79.5409 706.511 81.1269 706.312 84.1875C706.247 85.0886 706.181 85.9896 706.113 86.918C706.076 87.605 706.039 88.2921 706 89C705.34 89 704.68 89 704 89C703.963 88.3013 703.925 87.6027 703.887 86.8828C703.821 85.9727 703.755 85.0627 703.688 84.125C703.629 83.2201 703.571 82.3152 703.512 81.3828C703.212 78.6378 703.212 78.6378 700 77C700 76.34 700 75.68 700 75C701.32 75 702.64 75 704 75C704 74.01 704 73.02 704 72Z" fill="#050C1E"/>
<path d="M704 98C704.454 98.6187 704.908 99.2375 705.375 99.875C706.971 102.059 706.971 102.059 709 104C708.977 106.383 708.977 106.383 708.625 109.125C708.514 110.035 708.403 110.945 708.289 111.883C708.194 112.581 708.098 113.28 708 114C707.67 114 707.34 114 707 114C707 112.35 707 110.7 707 109C705.68 108.67 704.36 108.34 703 108C703 109.65 703 111.3 703 113C702.67 113 702.34 113 702 113C701.778 111.544 701.573 110.085 701.375 108.625C701.259 107.813 701.143 107.001 701.023 106.164C701.016 105.45 701.008 104.736 701 104C701.66 103.34 702.32 102.68 703 102C703.643 99.9313 703.643 99.9313 704 98Z" fill="#142F4F"/>
<path d="M698 196C699.485 196.99 699.485 196.99 701 198C701.293 201.258 701.293 201.258 701.188 205.125C701.16 206.406 701.133 207.688 701.105 209.008C701.071 209.995 701.036 210.983 701 212C700.01 212 699.02 212 698 212C698 206.72 698 201.44 698 196Z" fill="#C8D0D9"/>
<path d="M704 197C704.66 197.33 705.32 197.66 706 198C706 202.62 706 207.24 706 212C705.01 212 704.02 212 703 212C702.973 209.688 702.954 207.375 702.938 205.062C702.926 203.775 702.914 202.487 702.902 201.16C703 198 703 198 704 197Z" fill="#C8D0D9"/>
<path d="M483 331C484.98 331.495 484.98 331.495 487 332C486.886 333.813 486.759 335.626 486.625 337.438C486.555 338.447 486.486 339.456 486.414 340.496C486.277 341.322 486.141 342.149 486 343C485.01 343.495 485.01 343.495 484 344C483.34 345.32 482.68 346.64 482 348C482.33 342.39 482.66 336.78 483 331Z" fill="#441011"/>
<path d="M199 184C205.27 184 211.54 184 218 184C218 184.33 218 184.66 218 185C209.09 185.99 209.09 185.99 200 187C199.67 186.01 199.34 185.02 199 184Z" fill="#481216"/>
<path d="M360 340C360.99 340.33 361.98 340.66 363 341C363 345.62 363 350.24 363 355C361.334 351.668 360.513 349.377 359.812 345.812C359.633 344.932 359.454 344.052 359.27 343.145C359.181 342.437 359.092 341.729 359 341C359.33 340.67 359.66 340.34 360 340Z" fill="#3F0A0A"/>
<path d="M569 379C569.66 379 570.32 379 571 379C570.502 382.735 570.125 384.812 568 388C567.01 387.67 566.02 387.34 565 387C566.32 384.36 567.64 381.72 569 379Z" fill="#122036"/>
<path d="M701 120C700.67 123.3 700.34 126.6 700 130C699.01 129.67 698.02 129.34 697 129C697.586 122.848 697.586 122.848 698 121C700 120 700 120 701 120Z" fill="#192D46"/>
<path d="M696 260C696.99 260 697.98 260 699 260C699 262.64 699 265.28 699 268C697.5 266.812 697.5 266.812 696 265C695.812 262.312 695.812 262.312 696 260Z" fill="#13213A"/>
</svg>
