<svg width="1024" height="1024" viewBox="0 0 1024 1024" fill="none" xmlns="http://www.w3.org/2000/svg">
<g clip-path="url(#clip0_1_3)">
<rect width="1024" height="1024" fill="#C8D0D9"/>
<path d="M0 0C337.92 0 675.84 0 1024 0C1024 337.92 1024 675.84 1024 1024C686.08 1024 348.16 1024 0 1024C0 686.08 0 348.16 0 0Z" fill="#C8D0D9"/>
<path d="M414 653C422.91 653 431.82 653 441 653C444.801 665.636 447.826 678.441 450.856 691.28C451.756 695.086 452.665 698.89 453.574 702.693C454.149 705.12 454.723 707.546 455.297 709.973C455.705 711.673 455.705 711.673 456.121 713.407C456.492 714.99 456.492 714.99 456.87 716.606C457.198 717.991 457.198 717.991 457.533 719.405C457.999 721.996 458.086 724.374 458 727C458.66 727 459.32 727 460 727C460.08 725.872 460.16 724.744 460.242 723.582C461.111 715.814 463.238 708.258 465.125 700.688C465.53 699.046 465.934 697.405 466.338 695.763C467.551 690.84 468.774 685.92 470 681C470.37 679.513 470.739 678.026 471.109 676.539C473.061 668.69 475.028 660.844 477 653C485.91 653 494.82 653 504 653C504 695.9 504 738.8 504 783C497.73 783 491.46 783 485 783C484.67 755.28 484.34 727.56 484 699C477.4 726.72 470.8 754.44 464 783C460.7 783 457.4 783 454 783C452.416 776.324 450.835 769.646 449.258 762.968C448.724 760.713 448.19 758.458 447.655 756.204C443.219 737.511 439.107 718.773 435 700C434.67 727.39 434.34 754.78 434 783C427.4 783 420.8 783 414 783C414 740.1 414 697.2 414 653Z" fill="#082443"/>
<path d="M78 819C85.92 819 93.84 819 102 819C105.657 832.096 109.283 845.197 112.723 858.352C113.062 859.649 113.062 859.649 113.408 860.973C114.532 865.27 115.649 869.568 116.761 873.868C117.173 875.448 117.584 877.029 117.996 878.609C118.184 879.343 118.373 880.078 118.566 880.834C119.236 884.195 119.236 884.195 121 887C126.94 864.56 132.88 842.12 139 819C147.25 819 155.5 819 164 819C164 859.59 164 900.18 164 942C157.73 942 151.46 942 145 942C144.67 916.59 144.34 891.18 144 865C138.06 890.41 132.12 915.82 126 942C122.7 942 119.4 942 116 942C113.669 932.308 111.34 922.615 109.011 912.923C107.93 908.422 106.848 903.921 105.766 899.421C104.721 895.077 103.677 890.732 102.634 886.388C102.236 884.731 101.838 883.075 101.439 881.418C100.881 879.097 100.323 876.775 99.7659 874.452C99.6012 873.769 99.4364 873.086 99.2667 872.382C98.4396 868.929 97.6967 865.484 97 862C96.67 888.4 96.34 914.8 96 942C90.06 942 84.12 942 78 942C78 901.41 78 860.82 78 819Z" fill="#082443"/>
<path d="M868 653C875.26 653 882.52 653 890 653C892.516 658.032 894.708 662.564 896.629 667.762C896.86 668.383 897.091 669.004 897.329 669.643C898.078 671.657 898.82 673.672 899.562 675.688C900.352 677.815 901.143 679.941 901.933 682.068C902.474 683.522 903.015 684.977 903.555 686.432C906.856 695.323 910.235 704.184 913.61 713.048C914.041 714.183 914.473 715.318 914.918 716.488C915.487 717.982 915.487 717.982 916.067 719.505C916.747 721.324 917.386 723.158 918 725C918.33 701.24 918.66 677.48 919 653C925.6 653 932.2 653 939 653C939 695.9 939 738.8 939 783C932.73 783 926.46 783 920 783C917.024 776.443 914.317 769.826 911.734 763.105C911.337 762.078 910.94 761.051 910.531 759.992C909.269 756.725 908.009 753.456 906.75 750.188C905.505 746.958 904.259 743.729 903.012 740.501C902.24 738.503 901.47 736.505 900.701 734.506C896.89 724.633 892.932 714.829 889 705C888.67 730.74 888.34 756.48 888 783C881.4 783 874.8 783 868 783C868 740.1 868 697.2 868 653Z" fill="#082443"/>
<path d="M271 652C277.6 652 284.2 652 291 652C291.091 665.761 291.164 679.522 291.207 693.283C291.228 699.674 291.256 706.064 291.302 712.455C291.345 718.628 291.369 724.8 291.38 730.973C291.387 733.322 291.401 735.672 291.423 738.021C291.452 741.324 291.456 744.626 291.454 747.929C291.468 748.89 291.483 749.851 291.498 750.841C291.438 760.752 288.393 770.268 281.508 777.586C273.988 784.69 265.126 785.604 255.185 785.549C246.651 785.276 240.065 782.897 233.824 776.914C225.914 767.579 224.841 756.759 224.886 744.956C224.886 743.96 224.886 742.964 224.886 741.938C224.887 738.659 224.894 735.38 224.902 732.102C224.904 729.823 224.906 727.545 224.907 725.267C224.91 719.279 224.92 713.292 224.931 707.305C224.942 701.191 224.946 695.078 224.951 688.965C224.962 676.977 224.979 664.988 225 653C232.26 653 239.52 653 247 653C247.015 656.018 247.029 659.035 247.044 662.145C247.095 672.127 247.161 682.109 247.236 692.092C247.28 698.143 247.32 704.194 247.346 710.245C247.372 716.087 247.413 721.929 247.463 727.771C247.48 729.997 247.491 732.223 247.498 734.449C247.507 737.573 247.535 740.697 247.568 743.82C247.565 745.194 247.565 745.194 247.563 746.595C247.647 752.376 248.503 756.753 251 762C255.041 764.694 258.256 764.659 263 764C266.606 762.082 267.705 760.805 269.109 756.977C270.336 752.326 270.308 747.718 270.319 742.934C270.334 741.455 270.334 741.455 270.349 739.946C270.38 736.705 270.397 733.464 270.414 730.223C270.433 727.968 270.452 725.714 270.473 723.459C270.524 717.539 270.564 711.62 270.601 705.7C270.641 699.653 270.692 693.607 270.742 687.561C270.839 675.707 270.922 663.854 271 652Z" fill="#082443"/>
<path d="M350 819C356.93 819 363.86 819 371 819C371.33 834.18 371.66 849.36 372 865C374.516 859.823 377.032 854.646 379.625 849.312C380.406 847.708 381.186 846.104 381.991 844.45C386.092 836.009 390.098 827.536 394 819C401.26 819 408.52 819 416 819C412.627 829.118 412.627 829.118 410.808 832.674C410.404 833.472 410.001 834.269 409.585 835.091C409.16 835.92 408.735 836.748 408.297 837.602C407.39 839.409 406.484 841.216 405.578 843.023C404.161 845.836 402.739 848.646 401.305 851.449C399.911 854.18 398.54 856.921 397.172 859.664C396.522 860.913 396.522 860.913 395.859 862.187C392.752 868.478 392.761 872.285 395.009 879.025C395.424 880.035 395.838 881.045 396.266 882.086C396.738 883.249 397.21 884.412 397.696 885.61C397.949 886.223 398.202 886.836 398.463 887.468C399.542 890.082 400.603 892.703 401.666 895.323C402.23 896.711 402.793 898.098 403.358 899.484C406.402 906.961 409.366 914.469 412.32 921.982C413.178 924.163 414.037 926.343 414.897 928.523C415.425 929.863 415.953 931.203 416.48 932.543C416.943 933.719 417.407 934.895 417.884 936.106C418.635 938.054 419.34 940.02 420 942C412.41 942 404.82 942 397 942C392.5 933 392.5 933 391.169 929.512C390.869 928.732 390.569 927.951 390.26 927.147C389.952 926.336 389.645 925.524 389.328 924.688C389.001 923.833 388.674 922.979 388.336 922.099C387.304 919.401 386.277 916.7 385.25 914C384.546 912.157 383.842 910.315 383.137 908.473C381.42 903.983 379.709 899.492 378 895C373.097 901.07 371.551 906.052 371.488 913.68C371.47 914.492 371.452 915.305 371.434 916.143C371.38 918.72 371.346 921.297 371.312 923.875C371.279 925.63 371.245 927.385 371.209 929.141C371.122 933.427 371.062 937.713 371 942C364.07 942 357.14 942 350 942C350 901.41 350 860.82 350 819Z" fill="#082443"/>
<path d="M309 652C327.48 652 345.96 652 365 652C365 658.93 365 665.86 365 673C353.78 673 342.56 673 331 673C331 684.22 331 695.44 331 707C339.91 707 348.82 707 358 707C358 713.93 358 720.86 358 728C349.09 728 340.18 728 331 728C331 739.55 331 751.1 331 763C342.88 763 354.76 763 367 763C367 769.6 367 776.2 367 783C347.86 783 328.72 783 309 783C309 739.77 309 696.54 309 652Z" fill="#082443"/>
<path d="M862.285 822.543C868.663 827.753 872.873 834.033 875 842C875.222 844.8 875.19 847.569 875.125 850.375C875.084 852.891 875.043 855.408 875 858C868.07 858 861.14 858 854 858C853.25 850.25 853.25 850.25 853.044 847.829C852.661 844.386 852.222 842.278 850.047 839.547C846.231 836.663 843.823 836.853 839.195 837.426C836.729 837.887 836.729 837.887 834.5 840.313C832.026 844.745 831.869 848.409 831.839 853.462C831.829 854.774 831.82 856.086 831.81 857.438C831.805 858.869 831.801 860.3 831.797 861.73C831.791 863.205 831.785 864.68 831.78 866.155C831.769 869.248 831.763 872.34 831.76 875.433C831.754 879.376 831.73 883.318 831.702 887.261C831.683 890.309 831.678 893.357 831.676 896.406C831.673 897.858 831.665 899.31 831.652 900.763C831.237 912.33 831.237 912.33 835 923C838.651 925.345 841.708 925.307 846 925C848.318 924.591 848.318 924.591 850 923C853.554 916.945 853.611 910.931 854 904C860.93 904 867.86 904 875 904C875.423 915.52 875.38 924.999 867.75 934.375C860.42 941.986 852.62 944.858 842.188 945.375C832.638 945.108 824.665 941.797 817.84 935.145C811.836 928.147 809.764 919.592 809.709 910.495C809.703 909.78 809.696 909.065 809.689 908.329C809.67 905.985 809.666 903.641 809.664 901.297C809.658 899.652 809.651 898.007 809.644 896.361C809.632 892.918 809.628 889.476 809.629 886.033C809.63 881.647 809.602 877.262 809.568 872.877C809.546 869.48 809.542 866.082 809.543 862.685C809.54 861.069 809.532 859.454 809.516 857.839C809.405 845.159 810.582 834.484 819.711 824.945C831.677 814.776 849.233 813.73 862.285 822.543Z" fill="#082443"/>
<path d="M892 819C909.49 819 926.98 819 945 819C945 825.27 945 831.54 945 838C934.44 838 923.88 838 913 838C913 848.56 913 859.12 913 870C921.25 870 929.5 870 938 870C938 876.27 938 882.54 938 889C929.75 889 921.5 889 913 889C913 899.89 913 910.78 913 922C923.89 922 934.78 922 946 922C946 928.6 946 935.2 946 942C928.18 942 910.36 942 892 942C892 901.41 892 860.82 892 819Z" fill="#082443"/>
<path d="M434 819C451.16 819 468.32 819 486 819C486 825.27 486 831.54 486 838C475.77 838 465.54 838 455 838C455 848.56 455 859.12 455 870C463.25 870 471.5 870 480 870C480 876.27 480 882.54 480 889C471.75 889 463.5 889 455 889C455 899.89 455 910.78 455 922C465.89 922 476.78 922 488 922C488 928.6 488 935.2 488 942C470.18 942 452.36 942 434 942C434 901.41 434 860.82 434 819Z" fill="#082443"/>
<path d="M161 652C168.26 652 175.52 652 183 652C183 688.63 183 725.26 183 763C193.23 763 203.46 763 214 763C214 769.6 214 776.2 214 783C196.51 783 179.02 783 161 783C161 739.77 161 696.54 161 652Z" fill="#082443"/>
<path d="M500 819C520.79 819 541.58 819 563 819C563 825.27 563 831.54 563 838C556.07 838 549.14 838 542 838C542 872.32 542 906.64 542 942C535.07 942 528.14 942 521 942C521 907.68 521 873.36 521 838C514.07 838 507.14 838 500 838C500 831.73 500 825.46 500 819Z" fill="#082443"/>
<path d="M659 819C665.93 819 672.86 819 680 819C680 852.99 680 886.98 680 922C690.23 922 700.46 922 711 922C711 928.6 711 935.2 711 942C693.84 942 676.68 942 659 942C659 901.41 659 860.82 659 819Z" fill="#082443"/>
<path d="M789.25 659.25C800.998 648.207 818.887 646.739 833 654C842.005 659.02 846.512 667.152 849.352 676.828C850.706 683.458 850.428 690.257 850.398 696.996C850.4 698.637 850.403 700.278 850.407 701.919C850.412 705.344 850.406 708.768 850.392 712.193C850.375 716.555 850.383 720.917 850.401 725.278C850.412 728.663 850.409 732.048 850.401 735.433C850.399 737.039 850.402 738.646 850.409 740.253C850.455 753.496 849.599 765.723 840.25 775.906C831.795 783.952 823.323 785.602 811.977 785.471C802.709 785.125 795.652 782.614 788.82 776.184C779.41 764.895 778.685 752.082 778.699 738.109C778.695 736.558 778.691 735.006 778.687 733.454C778.679 730.21 778.679 726.966 778.685 723.722C778.69 719.595 778.674 715.469 778.65 711.343C778.636 708.139 778.635 704.936 778.638 701.732C778.637 700.213 778.632 698.692 778.622 697.173C778.542 683.597 779.592 669.633 789.25 659.25ZM818 671C814.013 670.465 810.412 670.389 806.688 672C800.503 679.33 800.442 686.498 800.547 695.687C800.566 697.21 800.577 698.733 800.582 700.256C800.586 703.447 800.594 706.639 800.62 709.83C800.66 713.963 800.694 718.097 800.705 722.23C800.714 726.247 800.728 730.263 800.749 734.279C800.753 735.061 800.758 735.82 800.762 736.578C800.772 738.791 800.783 741.003 800.803 743.216C800.81 743.906 800.817 744.577 800.823 745.247C800.876 751.793 801.612 756.313 805 762C807.981 764.63 810.564 765.253 814.438 765.5C818.324 765.338 820.943 764.492 823.796 761.645C828.486 755.239 828.486 755.239 828.378 738.07C828.368 736.652 828.363 735.232 828.362 733.813C828.365 730.829 828.364 727.844 828.35 724.859C828.326 721.009 828.31 717.158 828.315 713.308C828.321 710.286 828.321 707.264 828.314 704.242C828.309 702.796 828.305 701.349 828.301 699.902C828.31 691.996 829.592 681.96 824.688 675.187L823 674C820.875 672.313 820.875 672.312 818 671Z" fill="#082443"/>
<path d="M701 660C713.246 648.178 734.019 645.773 748.25 655.625C757.671 663.46 761.492 672.08 763 684C763.096 686.275 763.148 688.553 763.161 690.831C763.171 692.15 763.181 693.468 763.191 694.827C763.195 696.252 763.2 697.677 763.203 699.101C763.208 700.193 763.208 700.193 763.212 701.306C763.227 705.16 763.236 709.014 763.24 712.867C763.246 716.81 763.27 720.754 763.298 724.697C763.317 727.762 763.322 730.826 763.323 733.89C763.326 735.342 763.335 736.794 763.348 738.246C763.46 751.402 762.517 764.358 754 775C751.539 777.451 749.002 779.263 746 781C744.977 781.618 744.977 781.619 743.934 782.25C734.954 786.747 722.844 786.771 713.352 783.894C704.62 779.792 698.564 774.422 694.824 765.504C692.791 759.327 691.749 753.882 691.726 747.366C691.721 746.649 691.715 745.932 691.71 745.194C691.696 742.851 691.697 740.507 691.699 738.164C691.695 736.518 691.69 734.871 691.686 733.225C691.678 729.784 691.679 726.343 691.685 722.902C691.691 718.516 691.673 714.129 691.65 709.743C691.635 706.346 691.635 702.948 691.638 699.551C691.637 697.935 691.631 696.319 691.621 694.703C691.55 681.706 692.842 670.639 701 660ZM733.813 672.25C728.334 669.815 722.615 669.897 718 674C713.382 680.802 713.381 680.803 713.486 695.966C713.498 697.525 713.504 699.084 713.504 700.643C713.498 703.915 713.497 707.186 713.516 710.457C713.545 714.688 713.565 718.918 713.554 723.149C713.544 726.464 713.542 729.778 713.551 733.093C713.557 734.678 713.562 736.262 713.567 737.847C713.561 740.109 713.557 742.369 713.575 744.631C713.582 745.342 713.589 746.032 713.596 746.722C713.61 749.936 713.638 752.842 714.6 755.922C716.503 760.651 718.357 762.81 723 765C727.366 765.579 731.842 765.618 735.5 762.875C738.541 759.074 739.88 755.173 740.367 750.407C740.364 749.096 740.36 747.824 740.357 746.552C740.363 744.312 740.365 742.073 740.348 739.833C740.335 738.237 740.326 736.64 740.323 735.044C740.322 731.705 740.317 728.365 740.298 725.026C740.27 720.694 740.246 716.363 740.24 712.031C740.237 708.642 740.23 705.252 740.22 701.862C740.214 700.247 740.209 698.631 740.203 697.015C740.198 694.695 740.191 692.375 740.176 690.055C740.171 689.333 740.166 688.632 740.161 687.93C740.149 685.62 740.105 683.308 740 681C738.684 677.051 737.064 674.851 733.813 672.25Z" fill="#082443"/>
<path d="M610 652C657.304 652 657.304 652 667.902 661.75C677.245 671.547 678.484 683.361 678.281 696.336C677.878 706.24 674.507 716.452 667.418 723.594C663.529 727 663.529 727 661 727C661.225 727.687 661.451 728.373 661.684 729.081C663.804 735.541 665.923 742.001 668.041 748.462C669.13 751.783 670.219 755.105 671.31 758.426C672.562 762.24 673.812 766.056 675.062 769.871C675.456 771.069 675.85 772.267 676.256 773.501C676.616 774.602 676.976 775.703 677.348 776.838C677.667 777.813 677.987 778.788 678.316 779.792C679 782 679 782 679 783H656C647.214 754.806 647.214 754.806 643.438 742.313C643.187 741.489 642.936 740.666 642.678 739.817C641 734.236 641 734.236 641 732H632V783H610V652ZM632 713C646 713 646 713 649.625 711.688C653.243 707.593 654.801 703.298 656 698C656.775 689.649 656.289 682.759 651 676C646 673 646 673 632 673V713Z" fill="#082443"/>
<path d="M577 819C623.017 819 623.017 819 633 827C641.976 835.976 643.339 846.37 643.388 858.452C643.225 869.654 639.746 878.776 632 887C622.21 895.232 611.64 894 599 894V942H577V819ZM599 875C614 875 614 875 618 872C620.959 867.808 621.916 865.176 622.285 860.023C622.417 852.169 622.633 846.09 617 840C612.862 837 612.862 837 599 837V875Z" fill="#082443"/>
<path d="M78 653C125.595 653 125.595 653 134.953 660.766C142.676 669.196 144.497 679.104 144.273 690.102C143.663 698.809 140.562 705.101 134.781 711.539C132.842 713.13 131.453 713.602 129 714V716L131.688 716.688C138.192 719.265 141.875 724.954 145 731C148.014 741.01 147.717 756.267 143.391 765.742C138.921 772.998 133.993 777.972 126 781C110.297 784.141 94.0139 783 78 783V653ZM99 764C110.29 764 113.741 765.715 121 759C123.534 754.934 124.348 751.731 124.312 746.932L124.25 744.813C124.201 738.1 123.616 734.129 119 729C114 726 114 726 99 726V764ZM99 707C105.995 707 111.755 708.086 117.625 704.313C121.29 700.744 122.859 698.055 123.215 692.863C123.293 685.125 123.512 679.81 118 674C113.966 671 113.966 671 99 671V707Z" fill="#082443"/>
<path d="M267 819C314.301 819 314.301 819 323.281 827.809C332.205 839.187 333.13 852.11 332 866C330.576 873.42 327.678 880.789 322 886C320.345 886.696 318.679 887.366 317 888C317.337 889.007 317.675 890.014 318.022 891.051C319.301 894.867 320.577 898.685 321.853 902.502C322.4 904.139 322.948 905.776 323.496 907.412C326.355 915.943 329.187 924.482 331.895 933.062C332.216 934.072 332.215 934.072 332.543 935.102C334 939.762 334 939.762 334 942H312L298 895L289 894V942H267V819ZM289 876C297.139 876 299.66 877.171 305.5 873.375C309.732 869.355 310.802 866.171 311.32 860.492C311.532 853.401 311.821 846.64 307 841C303.25 838 303.25 838 289 838V876Z" fill="#082443"/>
<path d="M550.223 651.902L554.041 651.912C555.382 651.92 556.722 651.929 558.062 651.938C559.407 651.943 560.751 651.947 562.096 651.951C565.397 651.963 568.699 651.98 572 652C573.66 657.498 574.886 663.01 576 668.642C576.189 669.584 576.378 670.527 576.572 671.498C577.194 674.605 577.812 677.713 578.43 680.82C578.865 683.002 579.301 685.184 579.737 687.365C580.652 691.943 581.565 696.521 582.477 701.1C583.633 706.908 584.792 712.715 585.952 718.522C587.071 724.121 588.188 729.721 589.305 735.32C589.512 736.361 589.721 737.402 589.935 738.474C592.083 749.241 594.214 760.012 596.294 770.793C596.467 771.678 596.639 772.564 596.817 773.476C596.973 774.291 597.129 775.106 597.29 775.945C597.428 776.659 597.565 777.372 597.707 778.107C598 780 598 780 598 783H575C572.783 774.229 571.496 766.033 571 757H545C544.426 762.189 544.427 762.189 543.864 767.379C543.788 768.047 543.711 768.714 543.633 769.402C543.559 770.067 543.487 770.733 543.411 771.418C542.792 775.312 541.855 779.15 541 783H519C520.356 772.987 522.044 763.091 523.977 753.176C524.266 751.675 524.556 750.173 524.845 748.672C525.454 745.511 526.066 742.351 526.679 739.191C528.11 731.816 529.532 724.439 530.954 717.062C531.269 715.43 531.583 713.798 531.897 712.167C533.857 702.007 535.791 691.843 537.668 681.668C537.953 680.122 537.953 680.122 538.244 678.545C539.095 673.922 539.94 669.298 540.778 664.673C541.067 663.094 541.356 661.516 541.645 659.938C541.77 659.234 541.895 658.531 542.024 657.806C543.084 652.039 543.084 652.039 546.684 651.887C547.851 651.892 549.019 651.897 550.223 651.902ZM557 682C556.421 686.976 555.707 691.895 554.819 696.825C554.512 698.513 554.207 700.202 553.904 701.891C553.417 704.615 552.928 707.339 552.438 710.063C551.942 712.789 551.447 715.517 550.96 718.245C550.802 719.13 550.649 719.989 550.496 720.848C550.342 721.686 550.192 722.5 550.042 723.313C549.901 724.111 549.764 724.886 549.627 725.66C549 729.125 549 729.126 549 737H567C567 733 567 733 566.696 730.583C566.55 729.659 566.408 728.761 566.266 727.864C566.101 726.813 565.94 725.792 565.78 724.771C565.6 723.643 565.425 722.548 565.25 721.453C564.696 717.938 564.141 714.423 563.582 710.909C563.193 708.463 562.805 706.017 562.418 703.57C561.282 696.38 560.144 689.189 559 682H557Z" fill="#082443"/>
<path d="M238.502 861.117C239.818 867.637 241.134 874.156 242.45 880.676C243.721 886.972 244.992 893.268 246.263 899.563C246.747 901.961 247.23 904.358 247.714 906.756C248.394 910.123 249.074 913.492 249.754 916.859C249.952 917.842 250.151 918.826 250.355 919.839C250.726 921.676 251.095 923.514 251.464 925.352C251.83 927.16 252.204 928.967 252.584 930.772C252.768 931.655 252.951 932.537 253.141 933.446C253.389 934.618 253.389 934.618 253.642 935.813C254 938 254 938 254 942H232L228 918H204C203.054 925.15 203.054 925.15 202.115 932.301C201.996 933.189 201.877 934.077 201.754 934.992C201.633 935.903 201.513 936.815 201.389 937.754C201 940 201 940 200 942H179C180.624 927.848 183.419 913.944 186.163 899.973C186.836 896.542 187.504 893.11 188.173 889.678C189.388 883.443 190.607 877.21 191.829 870.977C193.154 864.218 194.473 857.459 195.793 850.699C197.857 840.132 199.927 829.566 202 819H230C232.834 833.039 235.668 847.078 238.502 861.117ZM215 849C213.391 858.565 211.836 868.139 210.286 877.714C210.009 879.426 209.732 881.139 209.454 882.852C208.636 887.901 207.818 892.95 207 898H225C225 896 225 896 224.696 893.976C224.55 893.12 224.408 892.289 224.266 891.459C224.101 890.49 223.94 889.548 223.78 888.607C223.6 887.559 223.425 886.541 223.25 885.523C222.695 882.272 222.14 879.02 221.582 875.769C221.193 873.503 220.805 871.237 220.418 868.971C219.281 862.313 218.142 855.657 217 849H215Z" fill="#082443"/>
<path d="M775 819C778.369 832.475 778.369 832.475 779.332 837.586C779.567 838.813 779.801 840.04 780.043 841.305C780.167 841.962 780.291 842.619 780.419 843.296C782.887 856.342 785.465 869.366 788.092 882.381C788.571 884.755 789.049 887.13 789.527 889.505C791.466 899.131 791.466 899.132 793.415 908.756C794.196 912.599 794.972 916.444 795.745 920.289C796.035 921.728 796.326 923.167 796.62 924.604C797.026 926.595 797.427 928.586 797.826 930.578C798.054 931.702 798.281 932.826 798.516 933.983C799 937 799 937 799 942H777L775.5 933.938C775.343 933.114 775.187 932.29 775.025 931.441C774.904 930.769 774.782 930.096 774.656 929.402C774.531 928.727 774.405 928.051 774.275 927.355C773.913 924.257 774 921.12 774 918H749L748.625 923.812C748.157 929.993 747.215 935.925 746 942H724C726.124 931.062 728.249 920.125 730.375 909.188C730.533 908.376 730.69 907.565 730.853 906.729C736.538 877.48 742.253 848.237 748 819H775ZM761 848C760.185 852.711 759.371 857.423 758.561 862.135C758.228 864.069 757.895 866.003 757.562 867.938C757.072 870.769 756.582 873.601 756.096 876.434C755.937 877.358 755.783 878.255 755.629 879.152C754.538 885.425 753.649 891.665 753 898H770C770 894 770 894 769.696 891.772C769.55 890.94 769.408 890.131 769.266 889.323C769.101 888.375 768.94 887.454 768.78 886.533C768.6 885.518 768.425 884.532 768.25 883.547C767.696 880.379 767.141 877.212 766.582 874.045C766.193 871.841 765.805 869.638 765.418 867.434C764.283 860.955 763.144 854.477 762 848H761Z" fill="#082443"/>
<path d="M310 36C310.99 36 311.98 36 313 36C313.053 37.4625 313.053 37.4625 313.107 38.9545C313.44 48.1225 313.779 57.2903 314.122 66.458C314.298 71.1717 314.472 75.8855 314.643 80.5994C314.807 85.1447 314.976 89.6899 315.149 94.2349C315.214 95.9729 315.277 97.7109 315.339 99.449C315.425 101.875 315.517 104.301 315.611 106.726C315.636 107.452 315.66 108.178 315.685 108.926C315.545 112.25 315.545 112.25 317 115C317 117.97 317 120.94 317 124C322.94 124 328.88 124 335 124C335 121.03 335 118.06 335 115C335.33 114.01 335.66 113.02 336 112C336.212 109.382 336.376 106.782 336.5 104.16C336.54 103.374 336.581 102.588 336.622 101.778C336.752 99.2062 336.876 96.6344 337 94.0625C337.088 92.2921 337.177 90.5218 337.265 88.7515C337.841 77.0944 338.325 65.4365 338.658 53.7698C338.841 47.7917 339.25 41.9347 340 36C340.66 36 341.32 36 342 36C343.026 41.2547 343.305 46.4353 343.535 51.7695C343.578 52.7158 343.621 53.662 343.666 54.637C343.803 57.6953 343.933 60.7538 344.062 63.8125C344.107 64.8463 344.152 65.8802 344.198 66.9454C344.86 82.3067 345.281 97.6229 345 113C345.66 113 346.32 113 347 113C347.061 113.857 347.121 114.714 347.184 115.598C347.611 121.436 348.059 127.221 349 133C350.299 133.144 351.599 133.289 352.938 133.438C356.875 133.875 356.875 133.875 358 135C358.095 137.83 358.126 140.636 358.114 143.467C358.114 144.355 358.114 145.242 358.114 146.157C358.113 149.106 358.105 152.055 358.098 155.004C358.096 157.043 358.094 159.082 358.093 161.12C358.09 166.498 358.08 171.875 358.069 177.253C358.058 182.736 358.054 188.218 358.049 193.701C358.038 204.467 358.02 215.234 358 226C363.94 226.66 369.88 227.32 376 228C376.33 266.61 376.66 305.22 377 345C380.3 345.33 383.6 345.66 387 346C388.32 346.33 389.64 346.66 391 347C391 384.95 391 422.9 391 462C394.3 462.33 397.6 462.66 401 463C402.32 463.33 403.64 463.66 405 464C405.025 470.639 405.043 477.277 405.055 483.916C405.06 486.175 405.067 488.434 405.075 490.693C405.088 493.937 405.093 497.182 405.098 500.426C405.103 501.438 405.108 502.451 405.113 503.494C405.113 504.905 405.113 504.905 405.114 506.345C405.116 507.173 405.118 508.002 405.12 508.855C405 511 405 511 404 514C405.822 512.487 407.6 510.941 409.359 509.355C410.765 508.102 412.178 506.855 413.639 505.667C422.046 498.995 422.046 498.995 426.02 489.414C426.349 485.259 426.174 481.159 426 477C426.33 476.67 426.66 476.34 427 476C427.109 474.426 427.149 472.846 427.161 471.268C427.176 469.756 427.176 469.756 427.19 468.214C427.194 467.116 427.199 466.018 427.203 464.887C427.209 463.766 427.215 462.645 427.22 461.489C427.23 459.111 427.236 456.733 427.24 454.355C427.25 450.713 427.281 447.073 427.312 443.432C427.319 441.125 427.324 438.818 427.328 436.512C427.347 434.874 427.347 434.874 427.366 433.203C427.361 431.677 427.361 431.677 427.356 430.12C427.36 429.226 427.364 428.332 427.367 427.41C426.928 424.529 425.832 423.218 424 421C423.785 419 423.785 419 424.062 417C424.136 416.34 424.209 415.68 424.285 415C425 413 425 413 426.859 411.379C430.123 407.751 430.938 403.586 432.188 398.938C432.449 397.998 432.71 397.058 432.979 396.089C434.68 389.763 435.969 383.582 436 377C437.32 377 438.64 377 440 377C439.941 378.087 439.881 379.173 439.82 380.293C439.823 385.883 441.347 390.973 442.875 396.312C443.144 397.301 443.414 398.289 443.691 399.307C445.241 404.914 445.241 404.914 448 410C451.933 408.689 452.315 407.207 454.328 403.637C454.964 402.521 455.599 401.405 456.254 400.256C456.92 399.067 457.585 397.877 458.25 396.688C459.547 394.4 460.843 392.112 462.141 389.824C463.094 388.105 463.094 388.105 464.066 386.351C466 383 466 383 468.027 380.01C473.449 371.843 473.9 365.227 473.5 355.562C473.473 354.214 473.45 352.866 473.43 351.518C473.361 344.818 473.361 344.818 472.331 338.229C472.167 337.126 472.167 337.126 472 336C472.779 335.241 473.557 334.481 474.359 333.699C477.828 330.154 477.921 327.596 478.25 322.812C478.934 315.132 478.934 315.132 480 313C480.099 310.141 480.14 307.308 480.133 304.449C480.134 303.598 480.135 302.747 480.136 301.871C480.136 300.067 480.135 298.264 480.13 296.461C480.125 293.709 480.13 290.957 480.137 288.205C480.136 286.453 480.135 284.701 480.133 282.949C480.136 281.718 480.136 281.718 480.139 280.461C480.126 277.189 480.06 274.276 479.367 271.066C479.246 270.384 479.125 269.702 479 269C479.66 268.34 480.32 267.68 481 267C481.368 265.067 481.368 265.067 481.414 262.867C481.453 262.062 481.491 261.256 481.531 260.426C481.578 259.163 481.578 259.163 481.625 257.875C481.664 257.026 481.702 256.176 481.742 255.301C481.837 253.201 481.919 251.1 482 249C482.66 249 483.32 249 484 249C484.33 250.65 484.66 252.3 485 254C485.66 254 486.32 254 487 254C487.032 253.355 487.065 252.71 487.098 252.045C487.745 242.189 489.593 232.623 491.438 222.938C491.754 221.255 492.07 219.572 492.385 217.889C492.986 214.68 493.59 211.471 494.196 208.263C494.333 207.535 494.47 206.807 494.612 206.057C494.962 204.202 495.312 202.348 495.662 200.493C495.843 199.518 496.024 198.543 496.211 197.539C496.362 196.73 496.514 195.922 496.669 195.088C497.238 191.497 497.647 188.294 496 185C496.66 185 497.32 185 498 185C498 183.68 498 182.36 498 181C498.66 181 499.32 181 500 181C500.66 182.98 501.32 184.96 502 187C501.34 187 500.68 187 500 187C501.269 194.112 502.538 201.223 503.808 208.335C504.398 211.638 504.987 214.941 505.577 218.244C506.257 222.055 506.937 225.865 507.617 229.676C507.93 231.428 507.93 231.428 508.249 233.216C509.486 240.146 510.736 247.074 512 254C512.33 252.02 512.66 250.04 513 248C513.66 248 514.32 248 515 248C515.049 249.265 515.098 250.529 515.148 251.832C515.223 253.492 515.299 255.152 515.375 256.812C515.421 258.063 515.421 258.063 515.469 259.338C515.507 260.14 515.546 260.943 515.586 261.77C515.633 262.877 515.633 262.877 515.681 264.007C515.908 266.313 515.908 266.313 518 269C518.203 271.031 518.203 271.031 518.135 273.38C518.105 274.701 518.105 274.701 518.074 276.048C518.042 276.995 518.01 277.942 517.977 278.918C517.952 279.89 517.927 280.863 517.901 281.865C517.819 284.973 517.722 288.08 517.625 291.188C517.567 293.294 517.509 295.4 517.453 297.506C517.313 302.671 517.16 307.835 517 313C517.66 313 518.32 313 519 313C519.037 313.857 519.075 314.714 519.113 315.598C519.363 325.528 519.363 325.528 524 334C523.952 336.805 523.845 339.589 523.711 342.391C523.654 344.151 523.601 345.911 523.551 347.672C523.471 350.446 523.377 353.214 523.225 355.984C522.423 368.677 522.423 368.677 527.742 379.801C530.041 382.352 532.477 384.667 535 387C536.641 388.798 538.269 390.608 539.875 392.438C540.593 393.228 541.311 394.018 542.051 394.832C544.445 397.495 546.736 400.225 549 403C553.793 399.351 554.694 394.495 556.188 388.938C556.449 387.998 556.71 387.058 556.979 386.089C558.68 379.763 559.969 373.582 560 367C561.32 367.33 562.64 367.66 564 368C563.943 369.252 563.887 370.503 563.828 371.793C563.833 377.573 565.197 382.776 566.75 388.312C567.003 389.288 567.255 390.263 567.516 391.268C568.91 396.346 569.973 399.442 574 403C574.609 405.359 574.609 405.359 574.75 407.75C574.807 408.549 574.863 409.348 574.922 410.172C574.948 410.775 574.973 411.378 575 412C574.34 412 573.68 412 573 412C573 414.31 573 416.62 573 419C573.887 419.422 573.887 419.422 574.792 419.852C576.804 420.898 578.517 422.008 580.328 423.363C580.956 423.832 581.583 424.301 582.23 424.784C582.896 425.288 583.563 425.793 584.25 426.312C584.944 426.835 585.639 427.358 586.354 427.896C592.298 432.401 598.102 437.069 603.858 441.81C604.489 442.329 605.12 442.848 605.77 443.383C606.599 444.069 606.599 444.069 607.445 444.77C608.905 445.925 610.451 446.967 612 448C617.696 437.554 623.149 427.29 627 416C627.66 416 628.32 416 629 416C629.422 417.216 629.843 418.431 630.277 419.684C630.831 421.268 631.384 422.853 631.938 424.438C632.215 425.24 632.493 426.042 632.779 426.869C633.047 427.633 633.314 428.397 633.59 429.184C633.959 430.244 633.959 430.244 634.336 431.326C634.875 433.007 634.875 433.007 636 434C639.3 427.73 642.6 421.46 646 415C646.66 415 647.32 415 648 415C648 415.66 648 416.32 648 417C679.35 417 710.7 417 743 417C743.99 413.04 744.98 409.08 746 405C746.33 404.34 746.66 403.68 747 403C747.046 400.471 747.047 397.965 747 395.438C746.954 392.952 746.953 390.487 747 388C747.33 387.67 747.66 387.34 748 387C748.101 384.16 748.14 381.345 748.133 378.504C748.134 377.641 748.135 376.779 748.136 375.89C748.136 374.054 748.135 372.219 748.13 370.384C748.125 367.606 748.13 364.827 748.137 362.049C748.136 360.263 748.135 358.477 748.133 356.691C748.135 355.871 748.137 355.051 748.139 354.206C748.738 343.827 748.738 343.827 745 335C745.536 331.464 745.536 331.464 747 330C747.1 328.097 747.131 326.191 747.133 324.285C747.134 323.124 747.135 321.964 747.137 320.768C747.133 319.545 747.129 318.322 747.125 317.062C747.129 315.844 747.133 314.625 747.137 313.369C747.135 312.207 747.134 311.045 747.133 309.848C747.132 308.775 747.131 307.703 747.129 306.598C747.175 304.016 747.175 304.016 746 302C745.632 296.105 746.709 290.798 748 285.062C748.191 284.188 748.382 283.313 748.578 282.412C749.046 280.273 749.52 278.136 750 276C750.66 276 751.32 276 752 276C752.33 278.64 752.66 281.28 753 284C753.419 282.872 753.838 281.744 754.27 280.582C755.398 277.554 756.592 274.562 757.824 271.574C763.41 257.299 764.518 243.264 763 228C762.67 227.67 762.34 227.34 762 227C761.587 221.019 762.402 217.497 765 212C766.724 206.613 767.718 201.254 768.586 195.684C768.728 194.798 768.87 193.911 769.016 192.999C769.473 190.145 769.924 187.291 770.375 184.438C770.996 180.546 771.62 176.656 772.246 172.766C772.398 171.821 772.55 170.875 772.706 169.902C773.99 161.966 775.382 154.056 776.933 146.168C777.725 142.042 778.151 138.2 778 134C778 130 778 130 779 127.312C780.224 123.259 780.782 119.202 780 115C779.01 114.34 778.02 113.68 777 113C777 112.34 777 111.68 777 111C778.32 111 779.64 111 781 111C781 110.01 781 109.02 781 108C781.66 108 782.32 108 783 108C783 108.99 783 109.98 783 111C784.32 111.33 785.64 111.66 787 112C786.267 112.609 786.267 112.609 785.52 113.23C783.181 115.954 783.655 118.264 783.762 121.719C784.069 124.662 784.971 127.235 786 130C786 131.32 786 132.64 786 134C786.328 146.641 788.647 159.031 790.756 171.468C791.375 175.122 791.981 178.778 792.586 182.434C792.981 184.792 793.377 187.15 793.773 189.508C793.952 190.583 794.13 191.658 794.314 192.766C796.058 205.463 796.058 205.463 801 217C801.23 219.445 801.23 219.445 801.188 222.125C801.181 223.014 801.175 223.904 801.168 224.82C801 227 801 227 800 228C797.704 246.752 802.062 263.393 808 281C808.33 281.99 808.66 282.98 809 284C809.99 281.36 810.98 278.72 812 276C814.318 279.478 814.9 282.66 815.625 286.688C815.759 287.37 815.893 288.053 816.031 288.756C816.922 293.57 817.205 298.103 817 303C816.67 303.33 816.34 303.66 816 304C815.747 308.306 815.815 312.624 815.812 316.938C815.8 318.156 815.788 319.375 815.775 320.631C815.773 321.793 815.772 322.955 815.77 324.152C815.763 325.761 815.763 325.761 815.757 327.402C815.736 330.162 815.736 330.162 818 332C817.464 335.536 817.464 335.536 816 337C814.968 343.478 814.841 350.04 814.832 356.586C814.829 357.45 814.825 358.314 814.822 359.205C814.817 361.011 814.815 362.818 814.815 364.625C814.812 367.389 814.794 370.153 814.775 372.918C814.772 374.682 814.77 376.447 814.77 378.211C814.762 379.034 814.755 379.857 814.748 380.705C814.764 384.693 814.975 387.543 817 391C816.67 391.66 816.34 392.32 816 393C815.67 400.92 815.34 408.84 815 417C844.7 417 874.4 417 905 417C905.66 415.68 906.32 414.36 907 413C907.742 411.886 907.742 411.886 908.5 410.75C910.424 407.222 911.136 403.921 912 400C912.66 400 913.32 400 914 400C914.251 400.709 914.501 401.419 914.76 402.149C918.307 411.791 922.687 420.939 927.22 430.149C928.503 432.757 929.778 435.368 931.051 437.98C931.877 439.67 932.704 441.358 933.531 443.047C933.905 443.813 934.279 444.579 934.665 445.368C935.029 446.106 935.393 446.844 935.768 447.604C936.105 448.297 936.442 448.989 936.79 449.702C937.93 451.979 937.93 451.979 939.295 453.868C944.007 460.909 943.639 467.86 943.476 476.067C943.464 477.6 943.455 479.133 943.448 480.666C943.422 484.749 943.366 488.832 943.304 492.915C943.25 496.755 943.223 500.594 943.195 504.434C943.14 511.195 943.064 517.956 942.978 524.717C942.837 535.702 942.717 546.687 942.6 557.673C942.591 558.534 942.582 559.394 942.573 560.281C942.526 564.663 942.48 569.045 942.433 573.427C942.352 581.128 942.27 588.83 942.187 596.532C942.147 600.257 942.107 603.982 942.067 607.707C942.045 609.805 942.022 611.902 942 614C858.99 614.384 775.979 614.726 499.656 614.879C498.069 614.876 496.483 614.873 494.896 614.871C456.935 614.804 418.975 614.724 381.015 614.637C356.577 614.582 332.139 614.53 307.701 614.482C306.464 614.48 306.464 614.48 305.203 614.477C296.915 614.461 288.626 614.445 280.338 614.428C263.503 614.395 246.668 614.362 229.833 614.328C229.062 614.327 228.291 614.325 227.496 614.324C177.33 614.223 127.165 614.113 77 614C77 602.78 77 591.56 77 580C87.89 579.67 98.78 579.34 110 579C110 564.81 110 550.62 110 536C117.529 535.373 124.744 534.859 132.25 534.938C133.102 534.942 133.954 534.947 134.832 534.951C136.888 534.963 138.944 534.981 141 535C140.998 534 140.996 533 140.993 531.97C140.973 522.566 140.958 513.163 140.948 503.76C140.943 498.925 140.936 494.09 140.925 489.255C140.914 484.593 140.908 479.931 140.905 475.269C140.903 473.487 140.9 471.704 140.894 469.921C140.887 467.433 140.886 464.945 140.886 462.457C140.883 461.713 140.879 460.968 140.876 460.201C140.886 455.114 140.886 455.114 142 454C144.996 453.623 147.978 453.305 150.984 453.027C151.91 452.94 152.835 452.853 153.789 452.763C155.766 452.578 157.743 452.396 159.721 452.216C162.669 451.945 165.616 451.66 168.562 451.373C205.793 447.865 205.793 447.865 219.312 454.5C224.108 456.728 224.108 456.728 229 459C229 471.21 229 483.42 229 496C239.89 496 250.78 496 262 496C262 446.5 262 397 262 346C273 343 273 343 276 343C276 302.41 276 261.82 276 220C282.27 220 288.54 220 295 220C295 191.62 295 163.24 295 134C297.64 133.34 300.28 132.68 303 132C303.99 122.1 303.99 122.1 305 112C305.99 112 306.98 112 308 112C307.995 111.376 307.99 110.752 307.984 110.109C307.879 95.2506 308.046 80.4149 308.438 65.5625C308.467 64.3837 308.467 64.3837 308.497 63.1811C308.728 54.089 309.102 45.0563 310 36Z" fill="#5F1B27"/>
<path d="M781 108C781.66 108 782.32 108 783 108C783 108.99 783 109.98 783 111C784.98 111.495 784.98 111.495 787 112C786.511 112.406 786.023 112.812 785.52 113.23C783.181 115.954 783.655 118.264 783.762 121.719C784.069 124.662 784.971 127.235 786 130C786 131.32 786 132.64 786 134C786.328 146.641 788.647 159.031 790.756 171.468C791.374 175.122 791.981 178.778 792.586 182.434C792.981 184.792 793.377 187.15 793.773 189.508C793.952 190.583 794.13 191.658 794.314 192.766C796.058 205.463 796.058 205.463 801 217C801.23 219.445 801.23 219.445 801.188 222.125C801.178 223.459 801.178 223.459 801.168 224.82C801 227 801 227 800 228C797.704 246.752 802.062 263.393 808 281C808.33 281.99 808.66 282.98 809 284C809.99 281.36 810.98 278.72 812 276C814.318 279.478 814.9 282.66 815.625 286.688C815.826 287.711 815.826 287.711 816.031 288.756C816.922 293.57 817.205 298.103 817 303C816.67 303.33 816.34 303.66 816 304C815.747 308.306 815.815 312.624 815.812 316.938C815.8 318.156 815.788 319.375 815.775 320.631C815.773 321.793 815.772 322.955 815.77 324.152C815.765 325.225 815.761 326.297 815.757 327.402C815.736 330.162 815.736 330.162 818 332C817.464 335.536 817.464 335.536 816 337C814.968 343.478 814.841 350.04 814.832 356.586C814.829 357.45 814.825 358.314 814.822 359.205C814.817 361.011 814.815 362.818 814.815 364.625C814.812 367.389 814.794 370.153 814.775 372.918C814.772 374.682 814.77 376.447 814.77 378.211C814.762 379.034 814.755 379.857 814.748 380.705C814.764 384.693 814.975 387.543 817 391C816.67 391.66 816.34 392.32 816 393C815.67 400.92 815.34 408.84 815 417C844.7 417 874.4 417 905 417C905.66 415.68 906.32 414.36 907 413C907.743 411.886 907.743 411.886 908.5 410.75C910.424 407.222 911.136 403.921 912 400C912.66 400 913.32 400 914 400C914.251 400.709 914.501 401.419 914.76 402.149C918.307 411.791 922.687 420.939 927.22 430.149C928.503 432.756 929.778 435.368 931.051 437.98C931.877 439.67 932.704 441.358 933.531 443.047C933.905 443.813 934.279 444.579 934.665 445.368C937.289 450.69 940.11 455.798 943 461C942.67 511.49 942.34 561.98 942 614C834.09 614 726.18 614 615 614C615 560.87 615 507.74 615 453C614.01 451.515 614.01 451.515 613 450C613.157 444.192 616.116 439.631 618.875 434.688C622.268 428.591 625.038 422.71 627 416C627.66 416 628.32 416 629 416C629.632 417.823 629.632 417.823 630.277 419.684C630.831 421.268 631.384 422.853 631.938 424.438C632.354 425.641 632.354 425.641 632.779 426.869C633.047 427.633 633.314 428.397 633.59 429.184C633.836 429.891 634.082 430.598 634.336 431.326C634.875 433.007 634.875 433.007 636 434C639.3 427.73 642.6 421.46 646 415C646.66 415 647.32 415 648 415C648 415.66 648 416.32 648 417C679.35 417 710.7 417 743 417C743.99 413.04 744.98 409.08 746 405C746.33 404.34 746.66 403.68 747 403C747.046 400.471 747.047 397.965 747 395.438C746.954 392.952 746.953 390.487 747 388C747.33 387.67 747.66 387.34 748 387C748.101 384.16 748.14 381.345 748.133 378.504C748.134 377.641 748.135 376.779 748.136 375.89C748.136 374.054 748.135 372.219 748.13 370.384C748.125 367.606 748.13 364.827 748.137 362.049C748.136 360.263 748.135 358.477 748.133 356.691C748.136 355.461 748.136 355.461 748.139 354.206C748.738 343.827 748.738 343.827 745 335C745.536 331.464 745.536 331.464 747 330C747.1 328.097 747.131 326.191 747.133 324.285C747.135 322.544 747.135 322.544 747.137 320.768C747.133 319.545 747.129 318.322 747.125 317.062C747.129 315.844 747.133 314.625 747.137 313.369C747.135 312.207 747.134 311.045 747.133 309.848C747.131 308.239 747.131 308.239 747.129 306.598C747.175 304.016 747.175 304.016 746 302C745.632 296.105 746.709 290.798 748 285.062C748.191 284.188 748.382 283.313 748.578 282.412C749.046 280.273 749.52 278.136 750 276C750.66 276 751.32 276 752 276C752.33 278.64 752.66 281.28 753 284C753.419 282.872 753.838 281.744 754.27 280.582C755.398 277.554 756.592 274.562 757.824 271.574C763.41 257.299 764.518 243.264 763 228C762.67 227.67 762.34 227.34 762 227C761.587 221.019 762.402 217.497 765 212C766.724 206.613 767.718 201.254 768.586 195.684C768.728 194.798 768.87 193.911 769.016 192.999C769.473 190.145 769.924 187.291 770.375 184.438C770.996 180.546 771.62 176.656 772.246 172.766C772.398 171.821 772.55 170.875 772.706 169.902C773.99 161.966 775.382 154.056 776.933 146.168C777.725 142.042 778.151 138.2 778 134C778 130 778 130 779 127.312C780.224 123.259 780.782 119.202 780 115C779.01 114.34 778.02 113.68 777 113C777 112.34 777 111.68 777 111C778.32 111 779.64 111 781 111C781 110.01 781 109.02 781 108Z" fill="#082443"/>
<path d="M495.5 532.875C499.442 534.649 502.723 537.112 505.164 540.72C506.34 543.928 506.223 546.76 506.195 550.172C506.192 550.854 506.19 551.537 506.187 552.24C506.176 554.41 506.15 556.58 506.125 558.75C506.115 560.225 506.106 561.701 506.098 563.176C506.077 566.784 506.038 570.392 506 574C498.74 574 491.48 574 484 574C483.931 569.837 483.871 565.676 483.835 561.512C483.82 560.098 483.8 558.684 483.774 557.27C483.737 555.229 483.72 553.189 483.707 551.148C483.691 549.923 483.676 548.698 483.659 547.435C484.154 542.448 486.014 538.329 489.875 535.062C493 533 493 533 495.5 532.875Z" fill="#C8D0D9"/>
<path d="M771 297C771.66 297 772.32 297 773 297C773.66 298.65 774.32 300.3 775 302C775.99 300.35 776.98 298.7 778 297C782.188 298.318 783.935 299.727 786.25 303.438C786.75 304.22 787.25 305.002 787.766 305.809C790.386 310.462 790.705 314.851 789.539 320.059C787.842 325.339 785.515 327.83 781 331C777.89 332.555 775.437 332.286 772 332C766.914 329.261 763.83 326.49 762 321C761.512 314.494 761.095 308.52 765 303C767.625 300.188 767.625 300.188 770 298C770.33 297.67 770.66 297.34 771 297Z" fill="#C8D0D9"/>
<path d="M507 455C507.99 455 508.98 455 510 455C513.766 459.337 513.392 463.811 513.293 469.238C513.289 470.119 513.284 471 513.28 471.907C513.263 474.709 513.226 477.511 513.188 480.312C513.172 482.217 513.159 484.121 513.146 486.025C513.113 490.684 513.062 495.342 513 500C510.36 500 507.72 500 505 500C504.95 494.395 504.914 488.79 504.89 483.185C504.88 481.279 504.866 479.373 504.849 477.467C504.825 474.724 504.814 471.981 504.805 469.238C504.794 468.389 504.784 467.54 504.773 466.665C504.773 462.317 504.965 458.96 507 455Z" fill="#C8D0D9"/>
<path d="M481 455C484 456 484 456 485.173 457.805C486.035 460.092 486.242 461.694 486.227 464.126C486.227 465.327 486.227 465.327 486.227 466.552C486.216 467.406 486.206 468.26 486.195 469.141C486.192 470.023 486.19 470.905 486.187 471.814C486.176 474.626 486.15 477.438 486.125 480.25C486.115 482.159 486.106 484.068 486.098 485.977C486.076 490.651 486.041 495.326 486 500C483.36 500 480.72 500 478 500C477.926 494.395 477.871 488.79 477.835 483.185C477.82 481.279 477.8 479.373 477.774 477.467C477.737 474.724 477.72 471.981 477.707 469.238C477.692 468.389 477.676 467.54 477.66 466.665C477.659 461.916 477.987 458.91 481 455Z" fill="#C8D0D9"/>
<path d="M494 455C494.99 455 495.98 455 497 455C497 456.32 497 457.64 497 459C497.66 459 498.32 459 499 459C499 472.53 499 486.06 499 500C496.36 500 493.72 500 491 500C490.926 494.716 490.871 489.433 490.835 484.149C490.82 482.354 490.8 480.559 490.774 478.763C490.737 476.174 490.72 473.586 490.707 470.996C490.692 470.201 490.676 469.406 490.66 468.587C490.659 463.314 491.622 459.715 494 455Z" fill="#C8D0D9"/>
<path d="M781 108C781.66 108 782.32 108 783 108C783 108.99 783 109.98 783 111C784.32 111.33 785.64 111.66 787 112C786.511 112.406 786.023 112.812 785.52 113.23C783.181 115.954 783.655 118.264 783.762 121.719C784.069 124.662 784.971 127.235 786 130C786 134.127 785.545 137.915 785 142C784 140 783 138 782 136C781.34 137.98 780.68 139.96 780 142C779.67 142 779.34 142 779 142C777.558 131.187 777.558 131.187 779 127.312C780.224 123.259 780.782 119.202 780 115C779.01 114.34 778.02 113.68 777 113C777 112.34 777 111.68 777 111C778.32 111 779.64 111 781 111C781 110.01 781 109.02 781 108Z" fill="#0A1A32"/>
<path d="M503 291C505 293 505 293 505.227 295.889C505.217 297.094 505.206 298.298 505.195 299.539C505.186 301.492 505.186 301.492 505.176 303.484C505.159 304.865 505.142 306.245 505.125 307.625C505.115 309.013 505.106 310.401 505.098 311.789C505.074 315.193 505.041 318.596 505 322C504.01 322 503.02 322 502 322C499.244 319.244 500.814 310.78 500.813 307.062C500.8 305.748 500.788 304.434 500.775 303.08C500.772 301.202 500.772 301.202 500.77 299.285C500.765 298.129 500.761 296.973 500.757 295.781C501 293 501 293 503 291Z" fill="#C8D0D9"/>
<path d="M498 428C502.875 429.875 502.875 429.875 504 431C504.073 433.697 504.092 436.367 504.062 439.062C504.058 439.821 504.053 440.58 504.049 441.361C504.037 443.241 504.019 445.12 504 447C502.334 447.043 500.666 447.041 499 447C498 446 498 446 497.886 444.234C497.892 443.485 497.897 442.736 497.902 441.965C497.906 441.156 497.909 440.347 497.912 439.514C497.92 438.664 497.929 437.813 497.938 436.938C497.942 436.083 497.947 435.229 497.951 434.35C497.963 432.233 497.981 430.117 498 428Z" fill="#C8D0D9"/>
<path d="M493 428C493 433.94 493 439.88 493 446C491.02 446 489.04 446 487 446C486.919 443.562 486.86 441.126 486.813 438.688C486.787 437.997 486.762 437.307 486.736 436.596C486.663 431.505 486.663 431.505 488.324 429.02C490 428 490 428 493 428Z" fill="#C8D0D9"/>
<path d="M493 294C493.99 294.33 494.98 294.66 496 295C496.058 299.292 496.094 303.583 496.125 307.875C496.142 309.098 496.159 310.322 496.176 311.582C496.182 312.749 496.189 313.915 496.195 315.117C496.206 316.196 496.216 317.275 496.227 318.386C496 321 496 321 494 323C493 322 493 322 492.886 319.316C492.892 318.148 492.897 316.981 492.902 315.777C492.906 314.517 492.909 313.257 492.912 311.959C492.92 310.618 492.929 309.278 492.938 307.938C492.943 306.593 492.947 305.249 492.951 303.904C492.963 300.603 492.979 297.301 493 294Z" fill="#C8D0D9"/>
<path d="M912 400C912.66 400 913.32 400 914 400C914.326 400.869 914.652 401.738 914.988 402.633C915.425 403.785 915.862 404.938 916.312 406.125C916.742 407.262 917.171 408.399 917.613 409.57C918.939 413.024 918.939 413.024 920.73 416.242C922 419 922 419 921 422C920.328 420.711 919.663 419.419 919 418.125C918.629 417.406 918.257 416.686 917.875 415.945C917 414 917 414 917 412C915.68 411.67 914.36 411.34 913 411C912.67 411.66 912.34 412.32 912 413C912 412.34 912 411.68 912 411C911.01 410.67 910.02 410.34 909 410C909.99 406.7 910.98 403.4 912 400Z" fill="#0A1930"/>
<path d="M770 358C770.99 358.33 771.98 358.66 773 359C773 365.6 773 372.2 773 379C772.01 379 771.02 379 770 379C770 372.07 770 365.14 770 358Z" fill="#C8D0D9"/>
<path d="M502 359C502.66 359.33 503.32 359.66 504 360C504 366.27 504 372.54 504 379C503.01 379 502.02 379 501 379C500.971 375.854 500.953 372.708 500.938 369.562C500.929 368.665 500.921 367.767 500.912 366.842C500.909 365.988 500.906 365.134 500.902 364.254C500.894 363.068 500.894 363.068 500.886 361.858C501 360 501 360 502 359Z" fill="#C8D0D9"/>
<path d="M494 359C494.66 359.33 495.32 359.66 496 360C496 366.27 496 372.54 496 379C495.01 379 494.02 379 493 379C492.971 375.854 492.953 372.708 492.938 369.562C492.929 368.665 492.921 367.767 492.912 366.842C492.909 365.988 492.906 365.134 492.902 364.254C492.894 363.068 492.894 363.068 492.886 361.858C493 360 493 360 494 359Z" fill="#C8D0D9"/>
<path d="M780 359C780.66 359.33 781.32 359.66 782 360C782 365.94 782 371.88 782 378C781.01 378 780.02 378 779 378C778.973 375.021 778.953 372.042 778.938 369.062C778.929 368.212 778.921 367.362 778.912 366.486C778.909 365.677 778.906 364.869 778.902 364.035C778.897 363.286 778.892 362.537 778.886 361.766C779 360 779 360 780 359Z" fill="#C8D0D9"/>
<path d="M781 108C781.66 108 782.32 108 783 108C783 108.99 783 109.98 783 111C784.32 111.33 785.64 111.66 787 112C786.519 112.388 786.038 112.776 785.543 113.176C783.543 115.541 783.511 117.127 783.312 120.188C783.247 121.089 783.181 121.99 783.113 122.918C783.076 123.605 783.039 124.292 783 125C782.34 125 781.68 125 781 125C780.963 124.301 780.925 123.603 780.887 122.883C780.821 121.973 780.755 121.063 780.688 120.125C780.629 119.22 780.571 118.315 780.512 117.383C780.212 114.638 780.212 114.638 777 113C777 112.34 777 111.68 777 111C778.32 111 779.64 111 781 111C781 110.01 781 109.02 781 108Z" fill="#050C1E"/>
<path d="M781 134C781.454 134.619 781.908 135.237 782.375 135.875C783.971 138.059 783.971 138.059 786 140C785.977 142.383 785.977 142.383 785.625 145.125C785.514 146.035 785.403 146.945 785.289 147.883C785.194 148.581 785.098 149.28 785 150C784.67 150 784.34 150 784 150C784 148.35 784 146.7 784 145C782.68 144.67 781.36 144.34 780 144C780 145.65 780 147.3 780 149C779.67 149 779.34 149 779 149C778.778 147.544 778.573 146.085 778.375 144.625C778.259 143.813 778.143 143.001 778.023 142.164C778.016 141.45 778.008 140.736 778 140C778.66 139.34 779.32 138.68 780 138C780.643 135.931 780.643 135.931 781 134Z" fill="#142F4F"/>
<path d="M775 232C776.485 232.99 776.485 232.99 778 234C778.293 237.258 778.293 237.258 778.188 241.125C778.16 242.406 778.133 243.688 778.105 245.008C778.071 245.995 778.036 246.983 778 248C777.01 248 776.02 248 775 248C775 242.72 775 237.44 775 232Z" fill="#C8D0D9"/>
<path d="M781 233C781.66 233.33 782.32 233.66 783 234C783 238.62 783 243.24 783 248C782.01 248 781.02 248 780 248C779.973 245.688 779.954 243.375 779.938 241.062C779.926 239.775 779.914 238.487 779.902 237.16C780 234 780 234 781 233Z" fill="#C8D0D9"/>
<path d="M560 367C561.98 367.495 561.98 367.495 564 368C563.886 369.813 563.759 371.626 563.625 373.438C563.555 374.447 563.486 375.456 563.414 376.496C563.277 377.322 563.141 378.149 563 379C562.01 379.495 562.01 379.495 561 380C560.34 381.32 559.68 382.64 559 384C559.33 378.39 559.66 372.78 560 367Z" fill="#441011"/>
<path d="M276 220C282.27 220 288.54 220 295 220C295 220.33 295 220.66 295 221C286.09 221.99 286.09 221.99 277 223C276.67 222.01 276.34 221.02 276 220Z" fill="#481216"/>
<path d="M437 376C437.99 376.33 438.98 376.66 440 377C440 381.62 440 386.24 440 391C438.334 387.668 437.513 385.377 436.812 381.812C436.633 380.932 436.454 380.052 436.27 379.145C436.181 378.437 436.092 377.729 436 377C436.33 376.67 436.66 376.34 437 376Z" fill="#3F0A0A"/>
<path d="M646 415C646.66 415 647.32 415 648 415C647.502 418.735 647.125 420.812 645 424C644.01 423.67 643.02 423.34 642 423C643.32 420.36 644.64 417.72 646 415Z" fill="#122036"/>
<path d="M778 156C777.67 159.3 777.34 162.6 777 166C776.01 165.67 775.02 165.34 774 165C774.586 158.848 774.586 158.848 775 157C777 156 777 156 778 156Z" fill="#192D46"/>
<path d="M773 296C773.99 296 774.98 296 776 296C776 298.64 776 301.28 776 304C774.5 302.812 774.5 302.812 773 301C772.812 298.312 772.812 298.312 773 296Z" fill="#13213A"/>
</g>
<defs>
<clipPath id="clip0_1_3">
<rect width="1024" height="1024" fill="white"/>
</clipPath>
</defs>
</svg>
